<svg width="334" height="236" viewBox="0 0 334 236" fill="none" xmlns="http://www.w3.org/2000/svg">
<g opacity="0.5">
<path opacity="0.1" d="M111.429 235.015C127.626 235.015 140.756 232.91 140.756 230.314C140.756 227.717 127.626 225.612 111.429 225.612C95.2319 225.612 82.1016 227.717 82.1016 230.314C82.1016 232.91 95.2319 235.015 111.429 235.015Z" fill="#587EEC"/>
<path opacity="0.1" d="M270.848 235.147C291.06 235.147 307.444 233.042 307.444 230.446C307.444 227.849 291.06 225.744 270.848 225.744C250.637 225.744 234.252 227.849 234.252 230.446C234.252 233.042 250.637 235.147 270.848 235.147Z" fill="#587EEC"/>
<path opacity="0.1" d="M5.02106 101.602H35.5674V143.158H7.25732C7.18208 143.584 7.10985 144.014 7.03159 144.444H35.5674V177.958C35.5162 177.943 35.471 177.925 35.4229 177.907C34.6163 177.588 33.8157 177.252 33.0151 176.891L32.5034 176.66C31.7008 176.281 30.8982 175.881 30.0956 175.458C29.8157 175.311 29.5357 175.158 29.2588 175.002C24.8031 172.51 20.7553 169.354 17.2558 165.641C17.1535 165.542 17.0572 165.436 16.9549 165.34C16.4673 164.812 15.9887 164.277 15.5252 163.73L15.0135 163.129C14.4658 162.459 13.936 161.771 13.4214 161.074C13.3461 160.972 13.2739 160.87 13.1956 160.774C11.1025 157.877 9.36448 154.741 8.0188 151.431C7.97666 151.332 7.94055 151.224 7.90142 151.131C7.48808 150.069 7.12188 148.998 6.80285 147.916C6.6644 147.463 6.53197 147.015 6.41759 146.543C6.37546 146.405 6.33934 146.27 6.30623 146.135C4.59667 139.475 4.39502 132.556 4.39502 125.686C4.39502 124.884 4.39502 124.078 4.39502 123.282C4.39502 120.504 4.42813 117.707 4.47628 114.913C4.47628 114.189 4.50638 113.468 4.52143 112.741C4.56357 110.896 4.62376 109.052 4.70202 107.207C4.72008 106.694 4.74415 106.183 4.77124 105.672C4.77124 105.378 4.78629 105.083 4.81639 104.789C4.88862 103.719 4.94882 102.659 5.02106 101.602Z" fill="#587EEC"/>
<path opacity="0.1" d="M35.5674 55.3319H18.8119C21.5356 51.0768 24.5115 46.9879 27.7239 43.0871C30.2129 40.0349 32.8405 37.0608 35.5674 34.1948V55.3319Z" fill="#587EEC"/>
<path opacity="0.1" d="M35.5673 56.6177V100.316H5.11737C5.11737 100.19 5.13844 100.06 5.14747 99.9343C5.17456 99.5888 5.20164 99.2433 5.23174 98.9008C5.26485 98.4983 5.30097 98.0927 5.34009 97.6992C5.37922 97.3057 5.42136 96.825 5.46651 96.3894C5.51165 95.9538 5.55379 95.5122 5.60496 95.0766C5.65612 94.641 5.70127 94.2054 5.75544 93.7728C5.80962 93.3402 5.85778 92.9016 5.91496 92.469C5.96011 92.1085 6.00826 91.751 6.05642 91.3905C6.12565 90.8828 6.19788 90.3721 6.27614 89.8674C6.27614 89.7923 6.29721 89.7142 6.30924 89.6421C6.85859 85.9475 7.6071 82.2852 8.55153 78.671C9.54012 74.8798 10.8025 71.1649 12.3288 67.5557C13.951 63.7801 15.8503 60.1291 18.0113 56.6327L35.5673 56.6177Z" fill="#587EEC"/>
<path opacity="0.1" d="M42.86 101.599V143.158H108.103V101.599H42.86ZM42.86 144.441V180.13C43.2333 180.208 43.6035 180.283 43.9707 180.346C44.4703 180.442 44.9669 180.529 45.4755 180.604C45.5719 180.619 45.6712 180.634 45.7765 180.643C45.9752 180.676 46.1798 180.703 46.3785 180.731C46.8811 180.8 47.3807 180.857 47.8834 180.902C48.1211 180.926 48.3619 180.947 48.6027 180.965L49.1836 181.01C49.4996 181.034 49.8126 181.052 50.1227 181.061C50.3153 181.061 50.5079 181.079 50.7066 181.085C50.857 181.085 51.0075 181.085 51.164 181.085C51.3205 181.085 51.5433 181.085 51.7329 181.085C51.9917 181.085 52.2506 181.085 52.5064 181.085H52.8525C53.1114 181.085 53.3702 181.085 53.626 181.061H53.6441C53.8217 181.061 54.0023 181.061 54.1829 181.037C54.233 181.04 54.2832 181.04 54.3333 181.037C54.4838 181.037 54.6343 181.037 54.7788 181.016H54.8841L55.8924 180.938C56.2235 180.908 56.5576 180.869 56.8947 180.833L57.5809 180.752C60.3727 180.361 63.1335 179.775 65.8428 178.997C71.9285 177.303 77.8819 174.933 83.9647 173.196C91.8292 170.958 100.518 169.859 108.118 172.595V144.441H42.86ZM108.103 55.332V0.00491291C100.96 -0.0723304 93.8365 0.761558 86.9052 2.48633C70.3845 6.62903 55.5613 15.6144 42.86 27.0902V55.329H46.1347V56.6118H42.86V100.316H108.103V56.6148H59.5794V55.332H108.103ZM191.905 36.6433C187.817 36.4991 183.754 35.2073 180.079 33.2126C173.051 29.3973 167.438 23.5062 161.166 18.5344C148.133 8.17916 131.971 1.93056 115.39 0.38043V55.332H208.528L208.759 55.0887L191.905 36.6433ZM200.389 35.1413L209.385 44.9948V32.5577C206.373 32.9302 203.733 33.8164 200.401 35.1292L200.389 35.1413ZM209.385 188.992V144.441H190.216C190.165 144.251 190.114 144.059 190.054 143.867C190.111 144.059 190.159 144.251 190.213 144.441H115.402V176.66C116.112 177.186 116.813 177.738 117.509 178.3C118.258 178.901 118.999 179.535 119.742 180.157L120.491 180.776C120.85 181.076 121.211 181.376 121.575 181.659C122.297 182.244 123.027 182.82 123.763 183.389C124.127 183.69 124.5 183.96 124.871 184.242C130.748 188.727 136.948 192.775 143.42 196.352C144.871 197.153 146.334 197.935 147.811 198.698C148.795 199.2 149.786 199.699 150.779 200.182C152.272 200.909 153.777 201.61 155.294 202.285C169.279 208.551 184.067 212.851 199.236 215.062C202.605 215.558 205.987 215.949 209.382 216.233V188.989H209.683L209.385 188.992ZM115.402 56.6148V100.316H209.397V56.6148H115.402ZM115.402 101.599V143.158H209.397V101.599H115.402ZM216.693 32.5036V46.3767L228.175 33.8014C224.371 33.1886 220.544 32.751 216.693 32.4886V32.5036ZM216.693 101.614V143.158H308.115V101.599L216.693 101.614ZM307.781 192.29L308.103 144.441H216.693V216.711C222.582 216.958 228.479 216.888 234.361 216.501H234.463C237.272 216.324 240.068 216.068 242.851 215.732H242.914C257.762 214.007 272.28 210.14 286.014 204.253L307.781 192.29ZM325.744 108.442C325.4 107.634 325.042 106.832 324.678 106.039C323.998 104.537 323.279 103.077 322.538 101.617H315.405V143.158H333.44C333.431 131.394 330.448 119.377 325.753 108.427L325.744 108.442ZM315.405 144.456V185.612C320.485 180.752 324.777 175.191 327.868 168.834C331.586 161.18 333.286 152.891 333.425 144.45L315.405 144.456ZM315.405 89.504V100.319H321.87C319.914 96.596 317.759 92.9808 315.414 89.489L315.405 89.504ZM253.403 40.6568C252.928 40.4766 252.452 40.2933 251.974 40.1161C246.927 38.2557 241.769 36.7086 236.531 35.4837L218.959 54.7312L218.622 55.0887L218.848 55.335H281.385C272.676 49.3509 263.286 44.4188 253.412 40.6418L253.403 40.6568ZM283.218 56.6298H217.975L216.693 57.8014V100.316H227.932H227.95H308.127V79.7226C300.874 70.9673 292.503 63.1985 283.227 56.6148L283.218 56.6298Z" fill="#587EEC"/>
<path opacity="0.1" d="M35.5673 78.6591V100.316H5.11737C5.11737 100.19 5.13844 100.061 5.14747 99.9343C5.17456 99.5889 5.20164 99.2434 5.23174 98.9009C5.26485 98.4984 5.30097 98.0928 5.34009 97.6993C5.37922 97.3057 5.42136 96.8251 5.46651 96.3895C5.51165 95.9539 5.55379 95.5122 5.60496 95.0766C5.65612 94.641 5.70127 94.2054 5.75544 93.7729C5.80962 93.3403 5.85778 92.9017 5.91496 92.4691C5.96011 92.1086 6.00826 91.7511 6.05642 91.3906C6.12565 90.8829 6.19788 90.3722 6.27614 89.8675C6.27614 89.7924 6.29721 89.7143 6.30924 89.6422C6.85859 85.9476 7.6071 82.2852 8.55153 78.6711L35.5673 78.6591Z" fill="#587EEC"/>
<path opacity="0.1" d="M5.02106 101.602H35.5674V143.158H7.25732C7.18208 143.584 7.10985 144.014 7.03159 144.444H35.5674V177.958C35.5162 177.943 35.471 177.925 35.4229 177.907C34.6163 177.588 33.8157 177.252 33.0151 176.891L32.5034 176.66C31.7008 176.281 30.8982 175.881 30.0956 175.458C29.8157 175.311 29.5357 175.158 29.2588 175.002C24.8031 172.51 20.7553 169.354 17.2558 165.641C17.1535 165.542 17.0572 165.436 16.9549 165.34C16.4673 164.812 15.9887 164.277 15.5252 163.73L15.0135 163.129C14.4658 162.459 13.936 161.771 13.4214 161.074C13.3461 160.972 13.2739 160.87 13.1956 160.774C11.1025 157.877 9.36448 154.741 8.0188 151.431C7.97666 151.332 7.94055 151.224 7.90142 151.131C7.48808 150.069 7.12188 148.998 6.80285 147.916C6.6644 147.463 6.53197 147.015 6.41759 146.543C6.37546 146.405 6.33934 146.27 6.30623 146.135C4.59667 139.475 4.39502 132.556 4.39502 125.686C4.39502 124.884 4.39502 124.078 4.39502 123.282C4.39502 120.504 4.42813 117.707 4.47628 114.913C4.47628 114.189 4.50638 113.468 4.52143 112.741C4.56357 110.896 4.62376 109.052 4.70202 107.207C4.72008 106.694 4.74415 106.183 4.77124 105.672C4.77124 105.378 4.78629 105.083 4.81639 104.789C4.88862 103.719 4.94882 102.659 5.02106 101.602Z" fill="#587EEC"/>
<path opacity="0.1" d="M65.8277 62.8723V100.316H42.86V62.8723H46.1347V50.1948H59.5764V62.8723H65.8277Z" fill="#587EEC"/>
<path opacity="0.1" d="M65.8277 101.599H42.863V143.155H65.8277V101.599Z" fill="#587EEC"/>
<path opacity="0.1" d="M42.86 144.443H65.8277V178.991C63.1184 179.768 60.3576 180.353 57.5658 180.742L56.8796 180.826C56.5425 180.865 56.2084 180.899 55.8774 180.932C55.5463 180.965 55.2032 180.989 54.8691 181.01H54.7637C54.6193 181.01 54.4628 181.028 54.3213 181.031H54.1678C53.9872 181.031 53.8066 181.049 53.626 181.055C53.3702 181.07 53.1144 181.073 52.8525 181.076C52.7412 181.076 52.6358 181.076 52.5245 181.076C52.2656 181.076 52.0098 181.076 51.7509 181.076H51.1821C51.0286 181.076 50.8811 181.076 50.7216 181.076L50.1407 181.055C49.8397 181.055 49.5147 181.022 49.2017 181.001L48.6238 180.959L47.9044 180.893C47.3988 180.847 46.8962 180.79 46.3995 180.721L45.7976 180.637L45.4966 180.595C44.994 180.517 44.4974 180.433 43.9917 180.337C43.6215 180.274 43.2543 180.196 42.8811 180.12L42.86 144.443Z" fill="#587EEC"/>
<path opacity="0.1" d="M209.397 58.4502H190.46V100.313H209.397V58.4502Z" fill="#587EEC"/>
<path opacity="0.1" d="M209.4 101.599V143.158H115.402V125.232H165.47V135.807H190.46V101.599H209.4Z" fill="#587EEC"/>
<path opacity="0.1" d="M209.698 189.001H209.397V216.263C206.006 215.977 202.625 215.587 199.254 215.095C184.078 212.877 169.283 208.568 155.294 202.291C151.254 200.477 147.298 198.496 143.423 196.349C136.951 192.77 130.75 188.723 124.871 184.239C123.394 183.11 121.936 181.954 120.497 180.773C119.501 179.952 118.511 179.111 117.509 178.294C116.813 177.732 116.112 177.18 115.402 176.651V144.444H190.21C190.159 144.251 190.108 144.059 190.054 143.87C190.111 144.059 190.165 144.251 190.216 144.444H209.397V188.983C209.5 188.986 209.599 188.995 209.698 189.001Z" fill="#587EEC"/>
<path opacity="0.1" d="M258.788 55.3318H246.448V51.5046H251.98V40.1039C252.459 40.2781 252.937 40.4574 253.412 40.6416V51.5046H258.788V55.3318Z" fill="#587EEC"/>
<path opacity="0.1" d="M288.519 100.316H227.938C227.938 100.316 227.938 100.316 227.959 100.331L227.932 100.316H216.693V58.4532H219.877V89.3958H234.43V71.0706H246.451V56.6177H258.791V71.0826H270.812V89.4078H288.519V100.316Z" fill="#587EEC"/>
<path opacity="0.1" d="M216.693 101.599V143.158H288.519V101.599H216.693ZM308.016 192.077L308.115 159.182H288.519V144.462H216.693V216.711C222.582 216.958 228.479 216.888 234.361 216.501H234.463C237.272 216.324 240.068 216.068 242.851 215.732H242.914C257.762 214.007 272.28 210.14 286.014 204.253" fill="#587EEC"/>
<path opacity="0.1" d="M316.681 144.443H333.437C333.289 152.882 331.592 161.17 327.878 168.825C324.786 175.185 320.491 180.745 315.417 185.603V159.167H316.681V144.443Z" fill="#587EEC"/>
<path opacity="0.1" d="M333.446 143.158H316.681V108.427H325.753C330.448 119.377 333.431 131.393 333.446 143.158Z" fill="#587EEC"/>
<path opacity="0.1" d="M209.4 70.0883H199.254V83.2133H209.4V70.0883Z" fill="#587EEC"/>
<path opacity="0.1" d="M209.4 97.2936H199.254V100.316H209.4V97.2936Z" fill="#587EEC"/>
<path opacity="0.1" d="M209.4 101.599H199.254V110.416H209.4V101.599Z" fill="#587EEC"/>
<path opacity="0.1" d="M209.4 124.499H199.254V137.624H209.4V124.499Z" fill="#587EEC"/>
<path opacity="0.1" d="M209.4 151.704H199.254V164.83H209.4V151.704Z" fill="#587EEC"/>
<path opacity="0.1" d="M209.397 188.983C209.5 188.983 209.599 188.983 209.698 189.001H209.397V192.05H199.254V178.91H209.397V188.983Z" fill="#587EEC"/>
<path opacity="0.1" d="M209.397 206.109V216.248C206.006 215.962 202.625 215.572 199.254 215.08V206.109H209.397Z" fill="#587EEC"/>
<path opacity="0.1" d="M158.884 142.193H115.402V143.158H158.884V142.193Z" fill="#587EEC"/>
<path opacity="0.1" d="M158.884 144.44H115.402V148.136H158.884V144.44Z" fill="#587EEC"/>
<path opacity="0.1" d="M158.884 160.248H115.402V166.19H158.884V160.248Z" fill="#587EEC"/>
<path opacity="0.1" d="M158.881 178.303V184.245H124.871C123.394 183.12 121.935 181.964 120.494 180.779C119.498 179.958 118.511 179.117 117.506 178.303H158.881Z" fill="#587EEC"/>
<path opacity="0.1" d="M158.881 196.355V202.291H155.29C151.255 200.475 147.3 198.493 143.423 196.346L158.881 196.355Z" fill="#587EEC"/>
<path opacity="0.1" d="M242.923 105.627H234.364V114.171H242.923V105.627Z" fill="#587EEC"/>
<path opacity="0.1" d="M57.5869 65.8195H49.0271V74.3632H57.5869V65.8195Z" fill="#587EEC"/>
<path opacity="0.1" d="M57.5869 85.6646H49.0271V94.2083H57.5869V85.6646Z" fill="#587EEC"/>
<path opacity="0.1" d="M57.5869 105.51H49.0271V114.054H57.5869V105.51Z" fill="#587EEC"/>
<path opacity="0.1" d="M57.5869 125.352H49.0271V133.896H57.5869V125.352Z" fill="#587EEC"/>
<path opacity="0.1" d="M57.5869 145.198H49.0271V153.741H57.5869V145.198Z" fill="#587EEC"/>
<path opacity="0.1" d="M57.5869 165.043H49.0271V173.587H57.5869V165.043Z" fill="#587EEC"/>
<path opacity="0.1" d="M275.601 105.627H267.041V114.171H275.601V105.627Z" fill="#587EEC"/>
<path opacity="0.1" d="M242.923 126.701H234.364V135.245H242.923V126.701Z" fill="#587EEC"/>
<path opacity="0.1" d="M275.601 126.701H267.041V135.245H275.601V126.701Z" fill="#587EEC"/>
<path opacity="0.1" d="M242.923 147.772H234.364V156.316H242.923V147.772Z" fill="#587EEC"/>
<path opacity="0.1" d="M275.601 147.772H267.041V156.316H275.601V147.772Z" fill="#587EEC"/>
<path opacity="0.1" d="M242.923 168.846H234.364V177.39H242.923V168.846Z" fill="#587EEC"/>
<path opacity="0.1" d="M275.601 168.846H267.041V177.39H275.601V168.846Z" fill="#587EEC"/>
<path opacity="0.1" d="M242.923 189.92H234.364V198.464H242.923V189.92Z" fill="#587EEC"/>
<path opacity="0.1" d="M275.601 189.92H267.041V198.464H275.601V189.92Z" fill="#587EEC"/>
<path opacity="0.1" d="M234.364 216.501V210.991H242.92V215.716L234.364 216.501Z" fill="#587EEC"/>
<path opacity="0.1" d="M6.27313 89.6362V94.5239H35.5674V89.6362H6.27313ZM9.19262 94.2175H6.80285V89.9366H9.21068L9.19262 94.2175ZM12.1091 94.2175H9.70128V89.9366H12.1091V94.2175ZM15.0196 94.2175H12.6117V89.9366H15.0196V94.2175ZM17.936 94.2175H15.5312V89.9366H17.9391L17.936 94.2175ZM20.8495 94.2175H18.4417V89.9366H20.8495V94.2175ZM23.766 94.2175H21.3582V89.9366H23.766V94.2175ZM26.6825 94.2175H24.2746V89.9366H26.6825V94.2175ZM29.5959 94.2175H27.1881V89.9366H29.5959V94.2175ZM32.5094 94.2175H30.1016V89.9366H32.5094V94.2175ZM35.4229 94.2175H33.0151V89.9366H35.4229V94.2175Z" fill="#587EEC"/>
<path opacity="0.1" d="M6.27313 103.858V108.745H35.5674V103.858H6.27313ZM9.19262 108.436H6.80285V104.167H9.21068L9.19262 108.436ZM12.1091 108.436H9.70128V104.167H12.1091V108.436ZM15.0196 108.436H12.6117V104.167H15.0196V108.436ZM17.936 108.436H15.5312V104.167H17.9391L17.936 108.436ZM20.8495 108.436H18.4417V104.167H20.8495V108.436ZM23.766 108.436H21.3582V104.167H23.766V108.436ZM26.6825 108.436H24.2746V104.167H26.6825V108.436ZM29.5959 108.436H27.1881V104.167H29.5959V108.436ZM32.5094 108.436H30.1016V104.167H32.5094V108.436ZM35.4229 108.436H33.0151V104.167H35.4229V108.436Z" fill="#587EEC"/>
<path opacity="0.1" d="M6.27313 118.085V122.982H35.5674V118.085H6.27313ZM9.19262 122.663H6.80285V118.392H9.21068L9.19262 122.663ZM12.1091 122.663H9.70128V118.392H12.1091V122.663ZM15.0196 122.663H12.6117V118.392H15.0196V122.663ZM17.936 122.663H15.5312V118.392H17.9391L17.936 122.663ZM20.8495 122.663H18.4417V118.392H20.8495V122.663ZM23.766 122.663H21.3582V118.392H23.766V122.663ZM26.6825 122.663H24.2746V118.392H26.6825V122.663ZM29.5959 122.663H27.1881V118.392H29.5959V122.663ZM32.5094 122.663H30.1016V118.392H32.5094V122.663ZM35.4229 122.663H33.0151V118.392H35.4229V122.663Z" fill="#587EEC"/>
<path opacity="0.1" d="M6.27313 132.313V137.194H35.5674V132.313H6.27313ZM9.19262 136.891H6.80285V132.616H9.21068L9.19262 136.891ZM12.1091 136.891H9.70128V132.616H12.1091V136.891ZM15.0196 136.891H12.6117V132.616H15.0196V136.891ZM17.936 136.891H15.5312V132.616H17.9391L17.936 136.891ZM20.8495 136.891H18.4417V132.616H20.8495V136.891ZM23.766 136.891H21.3582V132.616H23.766V136.891ZM26.6825 136.891H24.2746V132.616H26.6825V136.891ZM29.5959 136.891H27.1881V132.616H29.5959V136.891ZM32.5094 136.891H30.1016V132.616H32.5094V136.891ZM35.4229 136.891H33.0151V132.616H35.4229V136.891Z" fill="#587EEC"/>
<path opacity="0.1" d="M6.39954 146.537C6.51692 146.997 6.64935 147.457 6.7878 147.91V146.844H9.19562V151.116H7.90744C7.94656 151.215 7.98569 151.323 8.02482 151.416H35.5674V146.537H6.39954ZM12.1181 151.116H9.7103V146.844H12.1181V151.116ZM15.0286 151.116H12.6208V146.844H15.0286V151.116ZM17.9451 151.116H15.5312V146.844H17.939L17.9451 151.116ZM20.8585 151.116H18.4507V146.844H20.8585V151.116ZM23.775 151.116H21.3672V146.844H23.775V151.116ZM26.6915 151.116H24.2837V146.844H26.6915V151.116ZM29.605 151.116H27.1971V146.844H29.605V151.116ZM32.5184 151.116H30.1106V146.844H32.5184V151.116ZM35.4319 151.116H33.0241V146.844H35.4319V151.116Z" fill="#587EEC"/>
<path opacity="0.1" d="M13.2017 160.765C13.2769 160.861 13.3491 160.969 13.4274 161.065H15.0196V163.117C15.1911 163.321 15.3597 163.526 15.5342 163.718V161.053H17.9421V165.34H16.9669C17.0632 165.439 17.1565 165.544 17.2679 165.641H35.5764V160.765H13.2017ZM20.8495 165.34H18.4417V161.071H20.8495V165.34ZM23.766 165.34H21.3582V161.071H23.766V165.34ZM26.6825 165.34H24.2747V161.071H26.6825V165.34ZM29.596 165.34H27.1881V161.071H29.596V165.34ZM32.5094 165.34H30.1016V161.071H32.5094V165.34ZM35.4229 165.34H33.0151V161.071H35.4229V165.34Z" fill="#587EEC"/>
<path opacity="0.1" d="M29.2708 174.99C29.5447 175.146 29.8246 175.29 30.1075 175.446V175.296H32.5154V176.648L33.027 176.885V175.296H35.4349V177.894C35.481 177.917 35.5294 177.936 35.5793 177.949V174.99H29.2708Z" fill="#587EEC"/>
<path opacity="0.1" d="M227.938 100.316H227.956H227.938ZM209.397 188.98H209.698H209.397ZM190.054 143.867C190.111 144.059 190.159 144.251 190.213 144.44C190.165 144.251 190.114 144.059 190.054 143.867ZM227.938 100.307H227.956H227.938ZM46.1467 55.3229V56.6056H59.5914V55.3229H46.1467ZM209.397 188.98H209.698H209.397ZM190.054 143.867C190.111 144.059 190.159 144.251 190.213 144.44C190.165 144.251 190.114 144.059 190.054 143.867ZM227.938 100.307H227.956H227.938ZM209.397 188.971H209.698H209.397ZM190.054 143.867C190.111 144.059 190.159 144.251 190.213 144.44C190.165 144.251 190.114 144.059 190.054 143.867Z" fill="#587EEC"/>
<path d="M139.787 114.06C139.787 114.06 138.601 113.894 138.601 112.17C138.601 110.446 137.752 107.225 137.752 107.225C137.752 107.21 137.018 101.616 136.004 100.727C134.989 99.838 133.686 94.6168 133.686 94.6168C133.686 94.6168 133.464 91.7839 133.009 91.1741C132.555 90.5643 131.941 89.0712 131.035 86.9413C130.129 84.8113 126.351 83.3363 126.351 83.3363C126.351 83.3363 119.522 79.3829 117.587 78.0941C117.411 77.9882 117.247 77.8644 117.096 77.7246C116.759 77.283 115.29 77.274 115.29 77.274C115.137 76.3066 114.989 75.1951 114.941 74.1887C114.941 74.0806 114.941 73.9724 114.926 73.8643C117.084 72.5911 118.71 70.5836 119.504 68.2105C119.54 68.0963 119.57 67.9762 119.603 67.862C119.733 67.8195 119.852 67.7505 119.953 67.6595C120.054 67.5684 120.135 67.4573 120.19 67.3333C120.365 66.9458 120.368 66.4921 120.585 66.1316C120.837 65.7051 121.319 65.4767 121.698 65.1553C122.655 64.3442 122.902 62.9773 122.857 61.7336C122.827 60.7272 122.664 59.7118 122.728 58.7114L122.746 58.4591C122.764 58.3089 122.785 58.1587 122.812 58.0145C122.959 57.2695 123.281 56.5665 123.462 55.8275C123.643 55.0885 123.661 54.2563 123.239 53.6194C122.622 52.6851 121.337 52.4989 120.208 52.4028C118.929 52.2946 117.786 52.4358 116.967 51.3753C116.584 50.8211 116.153 50.3014 115.679 49.8222C115.51 49.666 113.873 48.6686 113.873 48.6025C112.275 47.8638 110.463 47.7251 108.771 48.212C107.923 48.4583 107.122 48.8609 106.261 49.0622C104.404 49.5008 102.267 49.0261 100.69 50.0866C99.8111 50.6874 99.2844 51.6427 98.7908 52.574C98.3895 53.3411 97.9822 54.1071 97.5689 54.8722C96.9037 56.1309 96.2265 57.4106 95.9466 58.8046C95.8877 59.1079 95.8515 59.4152 95.8382 59.7238V59.7389C95.8382 59.85 95.8382 59.9612 95.8382 60.0723V60.2135C95.8382 60.3186 95.8382 60.4208 95.8563 60.5139C95.8744 60.607 95.8713 60.6371 95.8804 60.7002C95.8894 60.7633 95.9044 60.9045 95.9225 61.0006C95.9406 61.0967 95.9767 61.2649 96.0128 61.3971C96.0278 61.4542 96.0489 61.5083 96.067 61.5624C96.0971 61.6645 96.1332 61.7636 96.1723 61.8628C96.1934 61.9138 96.2145 61.9679 96.2385 62.019C96.2837 62.1241 96.3379 62.2263 96.392 62.3194C96.4161 62.3615 96.4342 62.4005 96.4583 62.4396C96.5422 62.5793 96.6347 62.7137 96.7351 62.8421C97.3792 63.6442 98.3273 64.1549 99.0286 64.906C99.0286 64.936 99.0286 64.966 99.0286 64.9931C99.0286 65.0772 99.0286 65.1583 99.0286 65.2424C99.0658 66.9174 99.5125 68.5579 100.33 70.0213C101.147 71.4847 102.31 72.7266 103.718 73.639C103.718 73.7531 103.733 73.8703 103.739 73.9844C103.798 74.8762 103.787 75.7711 103.706 76.6611C103.583 76.517 103.43 76.4023 103.257 76.3253C103.084 76.2484 102.896 76.2112 102.707 76.2165C102.577 76.2102 102.448 76.2213 102.321 76.2496L102.294 76.2285V76.2556C101.632 76.4178 100.816 77.1057 100.037 79.0614C100.037 79.0614 97.6652 81.7291 95.8593 81.6179C94.0534 81.5068 89.4816 84.3938 89.4816 84.3938C89.4816 84.3938 85.0211 87.2837 84.064 90.2278C83.529 91.8972 82.8876 93.5308 82.1437 95.1185L76.6298 106.459L75.6125 115.457C75.6125 115.457 76.1753 119.458 76.064 120.068C75.9526 120.678 78.3785 126.178 78.3785 126.178C78.3785 126.178 86.3935 140.235 89.6682 140.956L89.9029 140.79C90.043 140.863 90.1917 140.919 90.3454 140.956L91.0196 140.481C91.0601 141.01 91.0429 141.542 90.9684 142.067C90.5169 143.455 91.137 152.512 91.9255 154.288C92.7141 156.063 92.4342 179.342 92.4342 179.342L92.3228 181.397C92.3228 181.397 92.3228 181.463 92.3499 181.577L92.3228 182.064L92.4041 182.106C92.4885 182.758 92.461 183.419 92.3228 184.062C92.0399 184.963 91.9255 187.511 91.9255 187.511C91.9255 187.511 89.6712 201.894 90.7397 204.784C91.8081 207.674 92.7171 210.841 92.7171 210.841C92.7171 210.841 93.8458 214.446 92.7713 215.062C91.6968 215.677 88.6418 216.711 89.2709 218.213C89.8427 219.601 92.0128 223.32 92.3348 223.864L92.3078 224.149L91.8653 228.935C91.937 229.566 92.1087 230.183 92.374 230.761C92.8585 231.804 93.8006 232.885 95.5914 232.768C95.8924 232.747 96.2415 232.711 96.5786 232.666C99.8563 232.227 103.892 230.767 103.892 230.767C103.683 230.634 103.491 230.476 103.321 230.295C103.159 230.14 103.032 229.953 102.945 229.746C102.859 229.54 102.816 229.318 102.818 229.094C102.866 228.223 101.232 224.071 100.825 223.049C100.762 222.902 100.729 222.818 100.729 222.818C100.729 222.818 104.455 218.931 103.835 215.485C103.835 215.485 99.7118 213.082 101.069 211.763C102.427 210.444 104.853 206.656 104.853 206.656C104.853 206.656 104.964 192.491 104.853 190.377C104.736 188.909 104.806 187.432 105.06 185.982C105.105 185.762 105.16 185.549 105.217 185.339C107.094 185.618 108.989 185.762 110.887 185.768C111.579 185.768 112.284 185.768 112.994 185.726C112.994 185.926 113.003 186.143 113.021 186.375C113.178 189.884 113.47 196.036 113.707 198.322C114.044 201.6 115.907 210.432 115.907 210.432C115.907 210.432 112.353 212.709 116.527 218.321C116.527 218.321 116.527 220.355 116.251 220.649C115.955 221.612 115.717 222.591 115.537 223.581C115.363 224.639 115.29 225.708 115.573 226.264C116.251 227.592 120.314 227.484 120.314 227.484L120.413 227.466C121.18 227.386 121.955 227.46 122.694 227.682C123.432 227.905 124.119 228.271 124.714 228.76C126.258 229.998 132.118 229.454 135.29 229.061C136.534 228.905 137.364 228.76 137.364 228.76C137.404 228.62 137.419 228.473 137.406 228.328C137.373 227.55 136.762 225.843 132.621 224.32C132.621 224.32 128.726 221.707 128.78 219.43H128.699H128.248C128.576 219.411 128.786 219.43 128.786 219.43C128.786 219.43 127.26 213.872 127.883 213.421C128.506 212.971 126.64 206.812 126.64 206.812C126.64 206.812 125.572 196.478 125.515 195.754C125.517 195.133 125.611 194.515 125.795 193.921L125.515 188.256C125.515 188.256 125.461 186.372 125.515 185.759C125.506 185.227 125.462 184.696 125.385 184.17C125.358 183.96 125.331 183.74 125.301 183.524C126.761 183.155 127.709 182.812 127.709 182.812L127.54 163.09C128.78 160.687 129.009 155.414 129.003 151.674C129.003 149.271 128.895 147.493 128.895 147.493L130.589 144.732C130.589 144.732 130.98 141.427 130.36 140.703C130.087 140.376 130.21 140.036 130.436 139.757C130.553 139.664 130.677 139.58 130.806 139.505C130.806 139.505 130.788 139.478 130.767 139.438C130.885 139.34 131.011 139.25 131.143 139.171C131.143 139.171 130.541 138.24 131.08 137.846C131.585 138.189 132.037 138.447 132.38 138.657C132.356 138.877 132.332 139.003 132.332 139.003L132.476 138.702C132.807 138.889 133.009 139.003 133.009 139.003C133.009 139.003 135.664 133.725 135.607 132.947C135.549 132.168 137.412 128.891 137.412 128.891C137.412 128.891 137.638 127.17 138.655 126.449C139.673 125.728 139.444 120.503 139.444 120.503C139.444 120.503 139.727 117.782 140.404 116.67C141.081 115.559 139.787 114.06 139.787 114.06ZM88.994 111.743L89.0452 113.002C88.7442 112.518 88.5275 112.17 88.5275 112.17L88.994 111.743Z" fill="url(#paint0_linear_6_207)"/>
<path d="M133.154 136.723L132.503 139.487C132.503 139.487 127.297 136.834 126.357 133.463C125.418 130.093 127.929 128.813 127.929 128.813L132.78 130.865L133.154 136.723Z" fill="white"/>
<path opacity="0.1" d="M133.154 136.723L132.503 139.487C132.503 139.487 127.297 136.834 126.357 133.463C125.418 130.093 127.929 128.813 127.929 128.813L132.78 130.865L133.154 136.723Z" fill="black"/>
<path d="M103.932 230.785C103.932 230.785 99.1159 232.552 95.8052 232.774C94.0475 232.891 93.1235 231.816 92.6479 230.779C92.3881 230.203 92.2206 229.59 92.1513 228.962L92.5817 224.2L92.8105 221.665L99.8443 219.841L100.841 222.881L100.934 223.113C101.334 224.128 102.938 228.259 102.89 229.121C102.888 229.342 102.931 229.561 103.016 229.765C103.101 229.968 103.226 230.153 103.384 230.308C103.545 230.489 103.729 230.65 103.932 230.785Z" fill="white"/>
<path d="M136.826 228.364C136.838 228.509 136.823 228.654 136.783 228.794C136.783 228.794 126.484 230.509 124.377 228.794C123.783 228.292 123.091 227.921 122.344 227.703C121.598 227.484 120.814 227.424 120.043 227.526C120.043 227.526 116.058 227.634 115.393 226.324C115.116 225.774 115.188 224.708 115.36 223.657C115.535 222.671 115.768 221.697 116.058 220.74L116.218 220.613L117.166 219.853L128.266 219.526H128.35C128.296 221.791 132.118 224.39 132.118 224.39C136.178 225.892 136.777 227.589 136.826 228.364Z" fill="white"/>
<path opacity="0.1" d="M136.826 228.364C136.836 228.509 136.821 228.654 136.78 228.794C136.78 228.794 126.484 230.509 124.377 228.794C123.783 228.293 123.092 227.921 122.346 227.703C121.6 227.485 120.817 227.424 120.046 227.526C120.046 227.526 116.058 227.634 115.396 226.324C115.119 225.771 115.188 224.708 115.36 223.656C116.895 223.81 119.318 224.191 120.269 225.101C121.707 226.486 124.145 227.868 125.641 227.976C126.812 228.052 133.816 228.274 136.826 228.364Z" fill="black"/>
<path opacity="0.1" d="M103.932 230.785C103.932 230.785 99.116 232.552 95.8052 232.774C94.0475 232.891 93.1235 231.816 92.6509 230.776C93.8759 231.188 95.5765 231.62 96.4704 231.224C97.5298 230.755 101.286 230.452 103.393 230.323C103.553 230.498 103.734 230.653 103.932 230.785Z" fill="black"/>
<path d="M111.077 88.4345C107.104 86.8933 101.993 81.8013 103.269 79.4221C103.553 78.8217 103.721 78.1736 103.766 77.5114C103.848 76.6125 103.86 75.7085 103.802 74.8077C103.713 73.3324 103.535 71.8638 103.269 70.4097C103.269 70.4097 115.673 70.6891 114.95 72.5126C114.74 73.0473 114.707 73.9756 114.764 75.015C114.821 76.0544 114.971 77.229 115.128 78.2234C115.345 79.5873 115.561 80.6267 115.561 80.6267C115.561 80.6267 114.803 81.6872 114.357 81.7443C113.912 81.8013 116.777 90.6305 111.077 88.4345Z" fill="#CF6F80"/>
<path opacity="0.1" d="M100.925 223.113L100.832 223.215C97.1235 218.739 92.6389 224.317 92.6389 224.317L92.5727 224.2L92.8014 221.665L99.8353 219.841L100.832 222.881L100.925 223.113Z" fill="black"/>
<path opacity="0.1" d="M128.353 219.841C128.353 219.841 125.644 219.784 124.199 221.058C122.755 222.332 115.772 221.334 116.073 221.058C116.162 220.921 116.216 220.764 116.23 220.601L117.178 219.841L128.278 219.514C128.32 219.715 128.353 219.841 128.353 219.841Z" fill="black"/>
<path d="M105.539 184.69C105.337 185.188 105.184 185.704 105.081 186.231C104.83 187.675 104.761 189.144 104.874 190.605C104.985 192.708 104.874 206.8 104.874 206.8C104.874 206.8 102.493 210.558 101.166 211.883C99.8383 213.208 103.874 215.587 103.874 215.587C104.476 219.012 100.829 222.881 100.829 222.881C97.1205 218.405 92.6359 223.987 92.6359 223.987C92.6359 223.987 90.198 219.781 89.59 218.279C88.982 216.777 91.9708 215.738 93.0212 215.128C94.0716 214.518 92.97 210.922 92.97 210.922C92.97 210.922 92.0821 207.771 91.0287 204.896C89.9753 202.021 92.1905 187.709 92.1905 187.709C92.1905 187.709 92.3048 185.168 92.5787 184.281C92.7169 183.642 92.7444 182.983 92.66 182.335C92.6419 182.115 92.6209 181.932 92.6058 181.809C92.5908 181.686 92.5787 181.629 92.5787 181.629L92.6209 181.557L94.1258 178.757C94.1258 178.757 106.261 182.926 105.539 184.69Z" fill="#587EEC"/>
<path d="M128.353 219.511C128.353 219.511 125.644 219.454 124.199 220.713C122.755 221.971 115.772 220.989 116.073 220.713C116.374 220.436 116.35 218.39 116.35 218.39C112.254 212.809 115.748 210.544 115.748 210.544C115.748 210.544 113.918 201.756 113.587 198.497C113.355 196.22 113.069 190.1 112.916 186.607C112.85 185.105 112.81 184.071 112.81 184.071L116.157 183.398L116.588 183.311L124.66 181.695C124.66 181.695 124.883 183.197 125.033 184.426C125.108 184.95 125.15 185.479 125.16 186.009C125.105 186.61 125.16 188.49 125.16 188.49L125.433 194.129C125.255 194.72 125.162 195.335 125.16 195.952C125.214 196.67 126.264 206.951 126.264 206.951C126.264 206.951 128.091 213.085 127.468 213.527C126.845 213.968 128.353 219.511 128.353 219.511Z" fill="#587EEC"/>
<path opacity="0.1" d="M114.95 72.5126C114.74 73.0473 114.707 73.9756 114.764 75.015C113.102 76.0136 111.193 76.5241 109.254 76.488C107.315 76.4519 105.425 75.8705 103.802 74.8107C103.713 73.3344 103.535 71.8647 103.269 70.4097C103.269 70.4097 115.673 70.683 114.95 72.5126Z" fill="black"/>
<path d="M119.745 65.8735C119.747 66.956 119.577 68.032 119.239 69.0609C118.485 71.3661 116.939 73.3311 114.874 74.6085C112.809 75.8859 110.358 76.3935 107.954 76.0415C105.55 75.6896 103.348 74.5007 101.737 72.6851C100.127 70.8696 99.2111 68.5441 99.1521 66.1198C99.1521 66.0357 99.1521 65.9576 99.1521 65.8735C99.1287 64.5089 99.3778 63.1533 99.8848 61.8858C100.392 60.6183 101.147 59.4643 102.105 58.491C103.064 57.5177 104.207 56.7447 105.468 56.217C106.729 55.6894 108.083 55.4176 109.45 55.4176C110.817 55.4176 112.171 55.6894 113.432 56.217C114.693 56.7447 115.836 57.5177 116.795 58.491C117.753 59.4643 118.508 60.6183 119.015 61.8858C119.522 63.1533 119.771 64.5089 119.748 65.8735H119.745Z" fill="#CF6F80"/>
<path opacity="0.1" d="M111.077 88.4345C107.104 86.8934 101.993 81.8014 103.269 79.4221C103.553 78.8217 103.721 78.1737 103.766 77.5115L109.205 81.9726L112.57 84.7274L115.128 78.2265C115.345 79.5903 115.561 80.6298 115.561 80.6298C115.561 80.6298 114.803 81.6902 114.357 81.7473C113.912 81.8044 116.777 90.6305 111.077 88.4345Z" fill="black"/>
<path d="M125.142 108.15L120.6 184.305L114.677 184.693L99.3387 140.535L101.855 88.1099L102.385 77.0337L109.205 82.6244L112.573 85.3792L115.206 78.689L120.103 82.9488L125.142 108.15Z" fill="#587EEC"/>
<path opacity="0.1" d="M105.539 184.69C105.337 185.188 105.184 185.704 105.081 186.231C100.771 185.567 96.5853 184.262 92.663 182.359L92.5817 182.317L92.6088 181.833L92.6239 181.581L94.1288 178.781C94.1288 178.781 106.261 182.926 105.539 184.69Z" fill="black"/>
<path opacity="0.1" d="M116.227 186.243C115.125 186.43 114.013 186.556 112.898 186.622C112.832 185.119 112.792 184.086 112.792 184.086L116.139 183.413L116.227 186.243Z" fill="black"/>
<path opacity="0.1" d="M125.015 184.441C122.875 184.996 119.57 185.621 116.612 185.231L116.57 183.326L124.642 181.71C124.642 181.71 124.865 183.197 125.015 184.441Z" fill="black"/>
<path opacity="0.1" d="M116.558 185.579C104.218 187.682 92.9158 181.653 92.9158 181.653L93.0241 179.61C93.0241 179.61 93.3041 156.451 92.5275 154.676C91.751 152.9 91.146 143.897 91.5855 142.515C92.0249 141.133 89.9812 120.41 89.9812 120.41L89.6502 111.999L77.5328 107.099L82.9504 95.8276C83.6821 94.2473 84.3115 92.6218 84.8345 90.961C85.7766 88.0349 90.1498 85.16 90.1498 85.16C90.1498 85.16 94.6344 82.288 96.4071 82.3962C98.1799 82.5043 100.503 79.8547 100.503 79.8547C102.219 75.4897 103.772 77.4664 103.772 77.4664C103.772 77.6737 103.772 77.4664 103.688 78.1123C103.086 82.9039 113.421 98.0447 113.569 98.3121L114.553 122.243L115.549 152.528L116.558 185.579Z" fill="black"/>
<path d="M116.226 185.579C103.886 187.682 92.5816 181.653 92.5816 181.653L92.693 179.61C92.693 179.61 92.9729 156.451 92.1934 154.676C91.4138 152.9 90.8119 143.897 91.2543 142.515C91.6968 141.133 89.6501 120.411 89.6501 120.411L89.316 111.999L77.1926 107.081L82.6102 95.8097C83.3404 94.2287 83.9697 92.6032 84.4944 90.943C85.4334 88.017 89.8096 85.142 89.8096 85.142C89.8096 85.142 94.2942 82.2701 96.064 82.3782C97.8337 82.4864 100.16 79.8367 100.16 79.8367C101.879 75.4717 103.772 77.4484 103.772 77.4484C103.772 77.6557 103.591 77.7489 103.688 78.0943C105.012 82.7417 113.09 98.0267 113.238 98.2941L114.234 122.225L115.23 152.51L116.226 185.579Z" fill="white"/>
<path opacity="0.1" d="M112.901 98.976C111.573 98.4233 104.543 90.4112 104.543 90.4112V88.5877C104.287 87.9869 102.767 88.3534 101.533 88.774L102.063 77.6978L102.665 78.1964C103.983 82.8408 112.747 98.7087 112.901 98.976Z" fill="black"/>
<path d="M113.235 98.312C111.905 97.7592 104.874 89.7472 104.874 89.7472V87.9237C104.618 87.3228 103.098 87.6894 101.864 88.1099L102.397 77.0337L102.999 77.5324C104.32 82.1768 113.087 98.0476 113.235 98.312Z" fill="white"/>
<path opacity="0.1" d="M92.9157 138.27C93.0813 138.27 101.497 137.387 101.497 137.387C101.497 137.387 106.592 147.387 106.258 149.821C105.924 152.254 105.319 154.408 103.269 154.027C101.22 153.645 92.2385 154.327 92.2385 154.327L92.9157 138.27Z" fill="black"/>
<path d="M92.5817 137.606C92.7472 137.606 101.163 136.723 101.163 136.723C101.163 136.723 106.255 146.727 105.924 149.157C105.593 151.587 104.982 153.744 102.935 153.363C100.889 152.981 91.9045 153.663 91.9045 153.663L92.5817 137.606Z" fill="white"/>
<path d="M98.9234 132.911C98.9234 132.911 106.646 137.053 106.812 138.318C106.978 139.583 102.881 137.765 101.996 137.546C101.414 137.406 100.821 137.314 100.224 137.27L94.3214 137.429L98.9234 132.911Z" fill="#CF6F80"/>
<path opacity="0.1" d="M110.746 99.4926C111.195 99.4926 111.558 99.1294 111.558 98.6815C111.558 98.2335 111.195 97.8704 110.746 97.8704C110.297 97.8704 109.933 98.2335 109.933 98.6815C109.933 99.1294 110.297 99.4926 110.746 99.4926Z" fill="black"/>
<path d="M110.746 99.1624C111.195 99.1624 111.558 98.7992 111.558 98.3513C111.558 97.9033 111.195 97.5402 110.746 97.5402C110.297 97.5402 109.933 97.9033 109.933 98.3513C109.933 98.7992 110.297 99.1624 110.746 99.1624Z" fill="#3F3D56"/>
<path opacity="0.1" d="M112.242 134.605C112.69 134.605 113.054 134.242 113.054 133.794C113.054 133.346 112.69 132.983 112.242 132.983C111.793 132.983 111.429 133.346 111.429 133.794C111.429 134.242 111.793 134.605 112.242 134.605Z" fill="black"/>
<path d="M112.242 134.272C112.69 134.272 113.054 133.908 113.054 133.46C113.054 133.012 112.69 132.649 112.242 132.649C111.793 132.649 111.429 133.012 111.429 133.46C111.429 133.908 111.793 134.272 112.242 134.272Z" fill="#3F3D56"/>
<path opacity="0.1" d="M111.555 117.049C112.004 117.049 112.368 116.686 112.368 116.238C112.368 115.79 112.004 115.427 111.555 115.427C111.107 115.427 110.743 115.79 110.743 116.238C110.743 116.686 111.107 117.049 111.555 117.049Z" fill="black"/>
<path d="M111.555 116.718C112.004 116.718 112.368 116.355 112.368 115.907C112.368 115.459 112.004 115.096 111.555 115.096C111.107 115.096 110.743 115.459 110.743 115.907C110.743 116.355 111.107 116.718 111.555 116.718Z" fill="#3F3D56"/>
<path d="M130.288 137.101C130.288 137.101 130.842 137.93 130.288 138.318C129.734 138.706 130.342 139.643 130.342 139.643C130.342 139.643 128.961 140.451 129.569 141.178C130.177 141.905 129.792 145.188 129.792 145.188L128.13 147.934C128.13 147.934 128.23 149.704 128.236 152.095C128.236 155.826 128.016 161.071 126.8 163.463L126.968 183.083C126.968 183.083 121.151 185.204 116.281 184.558L115.558 153.074C115.558 153.074 116.612 135.221 117 131.796C117.227 130.018 117.32 128.226 117.277 126.434C117.277 126.434 117.111 121.074 116.555 118.587C116.555 118.587 115.953 107.811 115.892 104.828C115.865 103.401 115.941 99.2373 116.025 95.2778C116.118 90.9489 116.224 86.8663 116.224 86.8663L115.125 78.1903C115.125 78.1903 116.224 78.0792 116.555 78.5208C116.703 78.659 116.864 78.7828 117.036 78.8903C118.932 80.17 125.632 84.1055 125.632 84.1055C125.632 84.1055 129.34 85.5775 130.228 87.6864C131.116 89.7953 131.733 91.2913 132.163 91.8922C132.594 92.493 132.829 95.3169 132.829 95.3169C132.829 95.3169 134.105 100.514 135.101 101.394C136.097 102.274 136.826 107.874 136.826 107.874L128.022 114.784C128.022 114.784 127.248 126.277 127.083 126.722C126.917 127.167 130.288 137.101 130.288 137.101Z" fill="white"/>
<path d="M130.622 137.102C130.622 137.102 131.173 137.931 130.622 138.318C130.072 138.706 130.673 139.643 130.673 139.643C130.673 139.643 129.301 140.46 129.903 141.187C130.505 141.914 130.126 145.198 130.126 145.198L128.464 147.944C128.464 147.944 128.564 149.713 128.573 152.104C128.573 155.835 128.353 161.081 127.137 163.472L127.303 183.092C127.303 183.092 121.476 185.213 116.612 184.567L115.892 153.084C115.892 153.084 116.946 135.23 117.334 131.805C117.562 130.027 117.653 128.235 117.608 126.443C117.608 126.443 117.442 121.084 116.889 118.596C116.889 118.596 116.287 107.82 116.224 104.837C116.196 103.41 116.275 99.2465 116.356 95.2871C116.449 90.9581 116.555 86.8755 116.555 86.8755L115.104 78.0824C115.104 78.0824 116.555 78.0824 116.889 78.53C117.036 78.6699 117.197 78.7938 117.37 78.8995C119.266 80.1793 125.969 84.1147 125.969 84.1147C125.969 84.1147 129.674 85.5867 130.562 87.6956C131.45 89.8045 132.067 91.3006 132.5 91.9014C132.934 92.5022 133.163 95.3261 133.163 95.3261C133.163 95.3261 134.439 100.523 135.435 101.403C136.431 102.284 137.151 107.871 137.151 107.871L128.347 114.781C128.347 114.781 127.573 126.275 127.405 126.719C127.236 127.164 130.622 137.102 130.622 137.102Z" fill="white"/>
<path opacity="0.1" d="M120.079 89.4258L120.874 91.739L116.69 95.9448C116.783 91.6188 116.889 87.5332 116.889 87.5332L115.438 78.7401C115.438 78.7401 116.889 78.7401 117.223 79.1877C117.369 79.3272 117.531 79.4502 117.704 79.5542L121.262 89.7983L120.079 89.4258Z" fill="black"/>
<path d="M119.745 88.762L120.543 91.0752L116.359 95.281C116.452 90.952 116.558 86.8694 116.558 86.8694L115.104 78.0763C115.104 78.0763 116.558 78.0763 116.889 78.5239C117.036 78.663 117.198 78.7868 117.37 78.8934L120.931 89.1345L119.745 88.762Z" fill="white"/>
<path opacity="0.1" d="M119.745 65.8735C119.747 66.956 119.577 68.032 119.239 69.0609C119.182 69.0697 119.124 69.0671 119.069 69.0532C119.013 69.0392 118.96 69.0143 118.914 68.9797C118.836 66.276 117.503 63.7375 115.862 61.5776C115.402 60.9254 114.844 60.3479 114.207 59.8652C113.563 59.3828 112.763 59.1568 111.962 59.2313C111.059 59.3545 110.261 59.9673 109.349 60.0455C108.145 60.1446 107.068 59.3124 105.873 59.2704C105.387 59.275 104.908 59.383 104.467 59.5871C104.027 59.7912 103.635 60.0867 103.318 60.454C102.69 61.1952 102.224 62.0587 101.948 62.9895C101.475 64.401 101.217 65.8755 101.184 67.3635C101.169 68.2047 101.087 69.2591 100.305 69.5656C100.364 68.9469 100.293 68.3228 100.098 67.7328C99.9027 67.1428 99.5867 66.5996 99.1701 66.1378L99.1521 66.1198C99.1521 66.0357 99.1521 65.9576 99.1521 65.8735C99.1287 64.5089 99.3778 63.1533 99.8848 61.8858C100.392 60.6183 101.147 59.4643 102.105 58.491C103.064 57.5177 104.207 56.7447 105.468 56.217C106.729 55.6894 108.083 55.4176 109.45 55.4176C110.817 55.4176 112.171 55.6894 113.432 56.217C114.693 56.7447 115.836 57.5177 116.795 58.491C117.753 59.4643 118.508 60.6183 119.015 61.8858C119.522 63.1533 119.771 64.5089 119.748 65.8735H119.745Z" fill="black"/>
<path d="M113.713 49.5521C112.149 48.8178 110.37 48.6789 108.711 49.1616C107.877 49.4079 107.092 49.8075 106.246 50.0087C104.44 50.4443 102.333 49.9727 100.783 51.0271C99.9225 51.628 99.4048 52.5773 98.9233 53.4995L97.7194 55.7887C97.0632 57.0414 96.4011 58.3152 96.1272 59.694C95.8533 61.0729 96.0188 62.6171 96.8947 63.7256C97.5327 64.5337 98.4748 65.0414 99.1671 65.8015C99.5818 66.2638 99.8964 66.8066 100.091 67.3959C100.286 67.9852 100.357 68.6083 100.299 69.2262C101.084 68.9258 101.16 67.8683 101.178 67.0271C101.211 65.5391 101.469 64.0646 101.942 62.6531C102.217 61.722 102.683 60.8584 103.312 60.1176C103.629 59.7506 104.021 59.4553 104.462 59.2512C104.902 59.0471 105.381 58.939 105.867 58.934C107.071 58.9761 108.151 59.8052 109.343 59.7061C110.246 59.631 111.047 59.0151 111.956 58.895C112.757 58.8193 113.558 59.0454 114.201 59.5288C114.837 60.0107 115.395 60.5884 115.853 61.2412C117.497 63.4012 118.83 65.9336 118.908 68.6434C119.248 68.8927 119.739 68.5683 119.907 68.1837C120.076 67.7992 120.082 67.3486 120.296 66.9821C120.543 66.5585 121.015 66.3332 121.385 66.0147C122.324 65.2066 122.559 63.8458 122.523 62.6111C122.487 61.3764 122.246 60.1236 122.481 58.91C122.622 58.1649 122.941 57.468 123.116 56.732C123.29 55.996 123.312 55.1698 122.899 54.536C122.297 53.6047 121.03 53.4214 119.926 53.3343C118.67 53.2262 117.548 53.3643 116.747 52.3099C116.371 51.7596 115.948 51.243 115.483 50.7658C115.324 50.6096 113.713 49.6182 113.713 49.5521Z" fill="#512E4E"/>
<path opacity="0.1" d="M81.0001 112.903L77.8549 107.099L76.8586 116.054C76.8586 116.054 77.4124 120.032 77.3011 120.642C77.1897 121.251 79.5705 126.719 79.5705 126.719C79.5705 126.719 87.435 140.7 90.6465 141.421L101.497 133.683L98.6194 130.036C98.6194 130.036 97.6232 129.648 97.3733 130.036C97.3733 130.036 92.031 120.861 91.4772 120.197C90.9234 119.533 91.0317 118.208 91.0317 118.208C91.0317 118.208 90.201 117.325 90.4779 116.496C90.7548 115.667 88.8737 112.792 88.8737 112.792L90.5893 111.191L81.0001 112.903Z" fill="black"/>
<path d="M78.0203 106.438L77.1896 107.099L76.1934 116.054C76.1934 116.054 76.7472 120.032 76.6358 120.642C76.5244 121.252 78.9082 126.719 78.9082 126.719C78.9082 126.719 86.7697 140.7 89.9812 141.421L100.834 133.683L97.9541 130.036C97.9541 130.036 96.9579 129.648 96.7081 130.036C96.7081 130.036 91.3657 120.861 90.8119 120.197C90.2581 119.533 90.3694 118.208 90.3694 118.208C90.3694 118.208 89.5387 117.325 89.8156 116.496C90.0925 115.667 88.2084 112.792 88.2084 112.792L89.924 111.191L78.0203 106.438Z" fill="white"/>
<path opacity="0.1" d="M129.569 141.521C130.171 142.251 129.792 145.528 129.792 145.528L128.13 148.274C128.13 148.274 128.23 150.046 128.236 152.435L125.442 153.306C125.19 153.384 124.922 153.402 124.662 153.356C124.401 153.311 124.156 153.204 123.945 153.044C123.734 152.884 123.565 152.677 123.451 152.438C123.337 152.2 123.282 151.938 123.29 151.674L123.772 136.17L130.288 138.658C129.734 139.042 130.342 139.985 130.342 139.985C130.342 139.985 128.961 140.791 129.569 141.521Z" fill="black"/>
<path d="M129.903 141.187C130.505 141.917 130.126 145.197 130.126 145.197L128.464 147.943C128.464 147.943 128.564 149.713 128.573 152.104L125.728 152.99C125.481 153.067 125.219 153.084 124.964 153.039C124.709 152.994 124.469 152.889 124.263 152.733C124.057 152.576 123.891 152.373 123.779 152.14C123.668 151.907 123.614 151.65 123.622 151.392L124.106 135.84L130.625 138.327C130.069 138.712 130.677 139.652 130.677 139.652C130.677 139.652 129.301 140.46 129.903 141.187Z" fill="white"/>
<path d="M132.061 133.797C132.061 133.797 131.619 136.618 130.511 136.783C129.403 136.948 128.907 141.346 127.802 141.19C126.698 141.034 127.429 137.101 127.468 136.338C127.507 135.575 126.264 132.415 127.194 131.697C128.124 130.979 131.068 131.697 131.068 131.697L132.061 133.797Z" fill="#CF6F80"/>
<path opacity="0.1" d="M134.418 112.074L136.507 107.868C136.507 107.868 137.337 111.074 137.337 112.786C137.337 114.498 138.499 114.667 138.499 114.667C138.499 114.667 139.772 116.169 139.101 117.262C138.43 118.356 138.159 121.077 138.159 121.077C138.159 121.077 138.379 126.271 137.382 126.989C136.386 127.707 136.178 129.423 136.178 129.423C136.178 129.423 134.348 132.682 134.406 133.457C134.463 134.232 131.859 139.481 131.859 139.481C131.859 139.481 133.133 132.959 125.713 130.141C125.713 130.141 125.656 127.927 126.21 127.32C126.764 126.713 127.628 126.437 127.086 123.369C126.544 120.302 126.929 116.637 126.929 115.901C126.929 115.165 128.591 110.575 128.591 110.575L134.418 112.074Z" fill="black"/>
<path d="M135.321 107.267L137.145 107.868C137.145 107.868 137.978 111.074 137.978 112.786C137.978 114.498 139.14 114.667 139.14 114.667C139.14 114.667 140.413 116.169 139.742 117.262C139.071 118.356 138.803 121.077 138.803 121.077C138.803 121.077 139.023 126.271 138.026 126.989C137.03 127.707 136.808 129.423 136.808 129.423C136.808 129.423 134.981 132.682 135.038 133.457C135.095 134.232 132.488 139.481 132.488 139.481C132.488 139.481 133.765 132.959 126.343 130.141C126.343 130.141 126.288 127.927 126.842 127.32C127.396 126.713 128.26 126.437 127.718 123.369C127.176 120.302 127.561 116.637 127.561 115.901C127.561 115.165 129.223 110.575 129.223 110.575L135.321 107.267Z" fill="white"/>
<path opacity="0.1" d="M95.0347 216.278C95.0347 216.278 97.9421 214.455 99.8503 215.78C101.759 217.104 95.0347 216.278 95.0347 216.278Z" fill="black"/>
<path opacity="0.1" d="M117.626 210.64C117.626 210.64 120.199 210.309 122.36 212.631C124.522 214.953 117.626 210.64 117.626 210.64Z" fill="black"/>
<g opacity="0.1">
<path opacity="0.1" d="M121.391 65.3568C121.021 65.6752 120.546 65.9035 120.299 66.3271C120.088 66.6906 120.082 67.1382 119.914 67.5288C119.745 67.9193 119.254 68.2378 118.914 67.9914C118.836 65.2877 117.5 62.7492 115.859 60.5862C115.401 59.9335 114.843 59.3558 114.207 58.8739C113.563 58.3905 112.761 58.1644 111.959 58.24C111.056 58.3632 110.261 58.976 109.349 59.0511C108.145 59.1533 107.065 58.3211 105.87 58.279C105.384 58.2839 104.905 58.3922 104.465 58.5969C104.025 58.8016 103.634 59.0978 103.318 59.4657C102.689 60.2054 102.223 61.068 101.948 61.9982C101.475 63.4097 101.217 64.8842 101.184 66.3722C101.166 67.2103 101.087 68.2558 100.311 68.5682C100.329 68.7901 100.329 69.0132 100.311 69.2351C101.093 68.9347 101.172 67.8773 101.19 67.0361C101.223 65.5481 101.481 64.0735 101.954 62.6621C102.229 61.731 102.695 60.8674 103.324 60.1266C103.64 59.7597 104.032 59.4643 104.472 59.2602C104.912 59.0562 105.391 58.948 105.876 58.943C107.08 58.985 108.163 59.8142 109.355 59.715C110.258 59.6399 111.059 59.0241 111.965 58.9039C112.767 58.8283 113.569 59.0544 114.213 59.5378C114.849 60.0197 115.407 60.5974 115.865 61.2501C117.506 63.4101 118.842 65.9426 118.92 68.6523C119.26 68.9017 119.751 68.5772 119.92 68.1927C120.088 67.8082 120.094 67.3575 120.305 66.991C120.552 66.5675 121.027 66.3421 121.397 66.0237C122.336 65.2156 122.571 63.8547 122.535 62.62C122.535 62.581 122.535 62.5419 122.535 62.5059C122.478 63.5753 122.192 64.6658 121.391 65.3568Z" fill="black"/>
<path opacity="0.1" d="M99.1731 65.1435C98.4808 64.3834 97.5358 63.8757 96.9007 63.0706C96.366 62.3579 96.0605 61.4999 96.0249 60.6102C95.9301 61.722 96.2412 62.8306 96.9007 63.7315C97.5358 64.5396 98.4808 65.0473 99.1731 65.8074C99.8377 66.5508 100.237 67.4932 100.308 68.4871C100.354 67.8822 100.277 67.2743 100.082 66.6997C99.8871 66.1252 99.578 65.5959 99.1731 65.1435Z" fill="black"/>
<path opacity="0.1" d="M123.122 56.0739C122.944 56.81 122.628 57.5099 122.484 58.2519C122.398 58.7478 122.367 59.2514 122.391 59.754C122.401 59.4677 122.432 59.1825 122.484 58.9008C122.628 58.1558 122.944 57.4588 123.122 56.7228C123.225 56.3169 123.259 55.8963 123.221 55.4791C123.203 55.6795 123.169 55.8783 123.122 56.0739Z" fill="black"/>
</g>
<path opacity="0.1" d="M40.8044 228.493C57.0014 228.493 70.1317 226.388 70.1317 223.792C70.1317 221.195 57.0014 219.09 40.8044 219.09C24.6073 219.09 11.4771 221.195 11.4771 223.792C11.4771 226.388 24.6073 228.493 40.8044 228.493Z" fill="#587EEC"/>
<path d="M41.7495 133.728H39.8624V176.137H41.7495V133.728Z" fill="#535461"/>
<path d="M53.608 176.008L53.4906 177.919L53.3221 180.622L53.2528 181.746L53.0873 184.45L53.0151 185.573L52.8465 188.277L50.9443 218.94C50.8617 220.259 50.2784 221.498 49.3133 222.403C48.3482 223.308 47.0738 223.812 45.7494 223.813H35.8593C34.5352 223.812 33.2612 223.308 32.2966 222.403C31.332 221.497 30.7494 220.259 30.6674 218.94L28.7743 188.256L28.6057 185.552L28.5365 184.429L28.3679 181.725L28.2987 180.601L28.1302 177.898L28.0098 175.987C27.9889 175.619 28.0435 175.251 28.1702 174.905C28.2969 174.559 28.4931 174.243 28.7468 173.975C29.0004 173.708 29.3062 173.495 29.6453 173.35C29.9843 173.204 30.3496 173.13 30.7186 173.13H50.9473C51.315 173.133 51.678 173.212 52.0142 173.36C52.3503 173.509 52.6523 173.725 52.9016 173.994C53.151 174.264 53.3423 174.582 53.4637 174.928C53.5852 175.275 53.6343 175.642 53.608 176.008Z" fill="#3F3D56"/>
<path d="M53.4906 177.919L53.3221 180.613H28.2867L28.1182 177.919H53.4906Z" fill="#9D9CB5"/>
<path d="M53.2529 181.737L53.0873 184.435H28.5245L28.356 181.737H53.2529Z" fill="#9D9CB5"/>
<path d="M53.0151 185.561L52.8495 188.256H28.7622L28.5937 185.561H53.0151Z" fill="#9D9CB5"/>
<path d="M25.2377 149.623C36.2265 157.56 40.8134 169.973 40.8134 169.973C40.8134 169.973 27.5703 169.519 16.5786 161.582C5.58685 153.645 1.00897 141.235 1.00897 141.235C1.00897 141.235 14.246 141.686 25.2377 149.623Z" fill="#587EEC"/>
<path d="M1 141.235C1 141.235 14.7487 148.851 19.158 155.156C23.5674 161.462 40.8134 169.973 40.8134 169.973" stroke="#535461" stroke-width="2" stroke-miterlimit="10"/>
<path d="M32.3318 133.635C38.3123 137.952 40.8134 144.708 40.8134 144.708C40.8134 144.708 33.605 144.462 27.6215 140.145C21.6381 135.828 19.1429 129.068 19.1429 129.068C19.1429 129.068 26.3484 129.315 32.3318 133.635Z" fill="#587EEC"/>
<path d="M19.1429 129.068C19.1429 129.068 26.6253 133.214 29.0241 136.645C31.4229 140.076 40.8134 144.708 40.8134 144.708" stroke="#535461" stroke-width="2" stroke-miterlimit="10"/>
<path d="M49.4967 144.365C42.6254 151.903 41.1716 161.753 41.1716 161.753C41.1716 161.753 50.8601 159.38 57.7254 151.84C64.5908 144.299 66.0505 134.452 66.0505 134.452C66.0505 134.452 56.368 136.828 49.4967 144.365Z" fill="#587EEC"/>
<path d="M66.0565 134.455C66.0565 134.455 57.1054 142.181 54.83 147.505C52.5546 152.828 41.1716 161.753 41.1716 161.753" stroke="#535461" stroke-width="2" stroke-miterlimit="10"/>
<path d="M301.735 141.713C301.735 141.713 296.765 117.037 298.668 113.966C298.668 113.966 298.737 111.113 298.622 107.475C298.622 107.336 298.622 107.198 298.622 107.057C298.957 107.28 299.306 107.48 299.667 107.658C301.419 108.557 303.432 108.816 305.355 108.391L303.85 106.717C303.489 106.318 303.113 105.885 303.035 105.357C302.957 104.828 303.173 104.356 303.36 103.885C304.79 100.28 304.865 95.7464 302.111 92.9946C299.784 90.6814 299.218 87.6953 296.693 85.5834C294.848 84.0363 293.834 81.7682 292.877 79.5752C292.067 77.7216 291.251 75.853 290.788 73.8883C290.427 72.3532 290.282 70.764 289.786 69.265C289.289 67.7659 288.359 66.3089 286.905 65.639C286.388 65.4017 285.813 65.2665 285.34 64.951C284.72 64.5335 284.347 63.8545 283.899 63.2597C281.62 60.2556 273.99 62.025 270.379 63.2447C269.397 63.5518 268.488 64.0547 267.706 64.7227L267.739 64.6687C267.766 64.6236 267.799 64.5785 267.829 64.5335C267.434 64.8525 267.093 65.2329 266.818 65.66C266.291 66.4922 266.072 67.4625 265.632 68.3637C265.103 69.4302 262.156 72.4073 263.423 73.6059C263.512 73.6864 263.614 73.7514 263.724 73.7982C264.2 73.9958 264.723 74.0481 265.229 73.9484L265.175 74.0776C264.742 75.1351 264.52 76.2668 264.522 77.4092C264.522 82.345 268.6 86.3465 273.635 86.3465C274.582 86.3474 275.523 86.2025 276.425 85.9169C276.446 86.031 276.464 86.1452 276.486 86.2594C276.486 86.3044 276.501 86.3495 276.507 86.3945L276.347 86.6168C276.339 86.6031 276.33 86.5901 276.32 86.5778L271.595 93.1689C270.872 93.6766 266.713 96.6807 266.478 98.9338C266.231 101.4 265.984 104.287 265.984 104.287L265.951 104.906C265.745 105.078 265.503 105.204 265.243 105.274C264.984 105.344 264.712 105.357 264.446 105.312C262.972 105.071 262.972 110.719 262.972 110.719C262.972 110.719 261.99 111.62 261.316 110.839C260.642 110.058 258.86 112.705 258.86 112.705L247.694 113.185L247.438 113.2L246.836 111.341C246.771 111.145 246.632 110.982 246.447 110.888C246.263 110.794 246.049 110.777 245.852 110.839C245.805 110.854 245.76 110.874 245.716 110.896L245.674 110.92L245.596 110.974L245.557 111.01C245.535 111.03 245.515 111.051 245.497 111.073L245.461 111.116L245.443 111.134C245.373 111.229 245.327 111.34 245.308 111.457C245.289 111.574 245.298 111.694 245.334 111.806L245.852 113.402C243.697 113.834 241.494 115.054 243.291 118.413L234.183 116.733L237.13 119.203L252.341 122.336C252.139 122.696 252.272 123.219 252.901 123.955C255.61 127.131 260.546 127.993 262.532 128.215C263.057 129.386 263.712 130.495 264.486 131.52L264.314 134.683C264.314 134.683 259.285 158.794 258.364 160.017C258.829 159.491 259.254 158.932 259.637 158.344C258.177 163.297 256.136 170.078 255.601 171.093C254.74 172.715 253.942 179.279 254.923 179.7C255.224 179.829 256.085 179.766 257.313 179.673V180.217L257.259 200.822C257.259 200.822 257.506 213.46 256.829 214.665C256.151 215.87 255.971 218.396 255.971 218.396C255.971 218.396 253.262 223.38 251.116 225.384C251.101 225.399 251.085 225.413 251.068 225.426L251.002 224.957C251.002 224.957 248.422 228.208 242.716 228.024C242.716 228.024 239.282 230.253 244.374 230.374C249.467 230.494 255.971 230.193 255.971 230.193C255.971 230.193 260.513 223.284 264.317 224.185V229.421H265.482V224.101C266.022 223.746 266.484 223.285 266.841 222.747C267.197 222.208 267.44 221.603 267.555 220.968C267.655 220.313 267.582 219.644 267.344 219.026C267.105 218.408 266.709 217.862 266.195 217.444C265.964 217.235 265.779 216.982 265.651 216.698C265.523 216.415 265.455 216.108 265.452 215.798L265.409 215.834C265.409 215.728 265.382 215.62 265.37 215.509C265.036 212.805 264.618 207.227 266.096 203.099C268.121 197.439 268.735 189.556 267.261 184.864C266.785 183.364 266.394 181.839 266.09 180.295C266.054 180.099 266.02 179.913 265.99 179.739C266.999 179.875 267.997 180.076 268.979 180.34C272.395 181.28 279.869 181.454 286.249 181.403C286.264 181.577 286.282 181.761 286.303 181.944C286.417 183.218 286.655 184.477 287.014 185.705C287.814 188.108 288.182 198.704 288.182 198.704C288.182 198.704 289.214 207.416 288.651 210.961C288.35 212.932 288.049 214.911 287.878 216.9V216.939C287.878 216.939 286.186 221.746 284.949 224.356C284.919 224.422 284.886 224.489 284.856 224.552C284.526 224.582 284.201 224.653 283.89 224.765C283.89 224.765 282.231 228.069 280.579 228.616C278.926 229.163 279.474 230.962 283.215 230.302C286.957 229.641 292.606 229.1 292.606 229.1L292.85 225.729L293.999 224.293L293.698 227.655L294.923 227.415L294.761 223.326L296.642 220.977C296.642 220.977 298.914 218.958 295.537 214.986V215.074C295.501 215.016 295.468 214.956 295.429 214.899V214.881C294.869 214.016 294.424 212.403 295.239 209.54C296.714 204.367 297.572 199.671 297.572 199.671C297.572 199.671 300.865 187.093 296.907 181.142H297.081C296.676 180.304 296.389 179.415 296.23 178.498C296.21 178.39 296.192 178.279 296.175 178.165C299.104 177.997 301.978 177.468 304.323 176.326C304.314 176.314 302.902 146.465 301.735 141.713ZM264.555 120.894V120.954L263.953 120.984L264.555 120.894ZM262.49 121.179C262.391 121.201 262.298 121.245 262.219 121.309C261.96 121.674 261.798 122.099 261.747 122.543L260.808 122.333C260.808 122.333 260.148 122.192 259.2 122.033L258.752 121.582C259.986 121.48 261.268 121.33 262.49 121.179Z" fill="url(#paint1_linear_6_207)"/>
<path d="M293.56 223.368L293.202 227.625L294.403 227.385L294.222 222.767L293.56 223.368Z" fill="#1D2366"/>
<path d="M266.162 203.156C264.714 207.272 265.123 212.826 265.448 215.524C265.569 216.522 265.68 217.128 265.68 217.128C265.68 217.128 263.516 222.049 263.336 222.235C263.155 222.422 256.967 226.192 256.967 226.192L252.642 228.712C252.642 228.712 248.254 226.793 250.357 226.132C250.787 225.96 251.175 225.696 251.492 225.36C253.599 223.362 256.245 218.396 256.245 218.396C256.245 218.396 256.425 215.876 257.087 214.677C257.749 213.478 257.509 200.882 257.509 200.882L257.56 180.349V177.672L265.792 177.732C265.844 178.641 265.962 179.545 266.147 180.436C266.442 181.974 266.825 183.495 267.293 184.99C268.744 189.674 268.142 197.517 266.162 203.156Z" fill="#FFB0B1"/>
<path opacity="0.1" d="M265.68 217.129C265.68 217.129 263.516 222.049 263.336 222.236C263.155 222.422 256.967 226.192 256.967 226.192L252.642 228.713C252.642 228.713 248.254 226.793 250.357 226.132C250.787 225.96 251.175 225.696 251.492 225.36L251.679 226.673L253.12 226.613L265.461 215.53C265.569 216.522 265.68 217.129 265.68 217.129Z" fill="black"/>
<path d="M265.53 215.81L253.121 226.967L251.679 227.027L251.378 224.924C251.378 224.924 248.856 228.163 243.251 227.983C243.251 227.983 239.886 230.203 244.874 230.323C249.861 230.443 256.23 230.143 256.23 230.143C256.23 230.143 260.678 223.233 264.401 224.134V229.352H265.545V224.086C266.077 223.729 266.531 223.268 266.879 222.731C267.228 222.194 267.464 221.592 267.574 220.962C267.673 220.313 267.602 219.649 267.37 219.034C267.138 218.42 266.751 217.875 266.246 217.453C266.021 217.242 265.841 216.988 265.718 216.705C265.595 216.423 265.531 216.118 265.53 215.81Z" fill="#1D2366"/>
<path d="M294.704 209.573C293.903 212.427 294.339 214.034 294.887 214.896V214.914C295.59 215.979 296.078 217.17 296.326 218.42L296.374 218.691L290.728 226.907L287.664 228.109C287.664 228.109 282.737 226.429 283.637 225.949C283.862 225.832 284.215 225.207 284.618 224.344C285.822 221.746 287.483 216.951 287.483 216.951V216.912C287.658 214.932 287.935 212.959 288.242 210.994C288.792 207.458 287.781 198.779 287.781 198.779C287.781 198.779 287.42 188.226 286.637 185.825C286.284 184.605 286.049 183.354 285.936 182.088C285.774 180.586 285.738 179.349 285.738 179.349C285.738 179.349 288.982 174.842 294.929 179.709C295.405 180.097 295.823 180.55 296.172 181.055C300.281 186.889 296.973 199.741 296.973 199.741C296.973 199.741 296.145 204.415 294.704 209.573Z" fill="#FFB0B1"/>
<path opacity="0.1" d="M296.383 218.691L290.737 226.907L287.673 228.109C287.673 228.109 282.746 226.429 283.646 225.949C283.872 225.831 284.224 225.207 284.627 224.344C286.713 224.326 287.793 226.309 287.793 226.309L290.436 225.889C290.436 225.889 293.921 219.051 294.704 218.634C295.486 218.216 294.824 215.512 294.824 215.512V214.824C294.845 214.848 294.863 214.875 294.887 214.899V214.917C295.59 215.982 296.078 217.173 296.326 218.423L296.383 218.691Z" fill="black"/>
<path d="M287.974 226.486C287.974 226.486 286.469 223.729 283.586 224.747C283.586 224.747 281.963 228.052 280.341 228.586C278.719 229.121 279.26 230.924 282.926 230.266C286.592 229.608 292.118 229.064 292.118 229.064L292.359 225.702L296.085 220.965C296.085 220.965 298.306 218.955 295.002 214.999V215.687C295.002 215.687 295.664 218.39 294.881 218.808C294.099 219.225 290.625 226.066 290.625 226.066L287.974 226.486Z" fill="#1D2366"/>
<path opacity="0.1" d="M265.801 177.726C265.853 178.635 265.971 179.539 266.156 180.43C262.767 179.934 259.622 180.181 257.56 180.343V177.666L265.801 177.726Z" fill="black"/>
<path opacity="0.1" d="M296.507 181.803C296.507 181.803 291.691 182.037 285.948 182.085C285.786 180.583 285.75 179.346 285.75 179.346C285.75 179.346 288.994 174.839 294.942 179.706C295.417 180.094 295.836 180.547 296.185 181.052C296.278 181.308 296.385 181.559 296.507 181.803Z" fill="black"/>
<path d="M296.507 181.262C296.507 181.262 275.414 182.28 268.985 180.481C262.556 178.681 256.185 180.241 255.224 179.823C254.264 179.405 255.044 172.865 255.887 171.246C256.729 169.627 261.352 153.251 261.352 153.251L265.801 130.102L270.487 128.813L270.818 128.72L278.984 126.473L284.967 124.823C284.967 124.823 296.865 171.186 295.844 174.605C295.474 175.914 295.414 177.291 295.67 178.627C295.826 179.54 296.107 180.427 296.507 181.262Z" fill="#1D2366"/>
<path d="M250.294 114.27C250.294 114.27 246.081 118.776 249.271 121.288C252.461 123.799 254.559 121.528 254.559 121.528L250.294 114.27Z" fill="#C7DAF5"/>
<path opacity="0.1" d="M250.294 114.27C250.294 114.27 246.081 118.776 249.271 121.288C252.461 123.799 254.559 121.528 254.559 121.528L250.294 114.27Z" fill="black"/>
<path d="M284.338 84.6433C284.338 84.6433 283.844 85.1119 283.101 85.8029C282.042 86.7912 280.473 88.2362 279.083 89.4469C277.157 91.1202 275.568 92.3489 276.136 91.3005C276.705 90.252 276.597 88.4255 276.314 86.7161C276.293 86.602 276.275 86.4878 276.254 86.3767C276.019 85.1213 275.709 83.8813 275.324 82.6636C275.324 82.6636 278.436 78.6501 280.157 77.0669C280.799 76.4661 281.247 76.2197 281.274 76.6373C281.304 77.1991 281.726 78.4398 282.249 79.7556C282.264 79.7976 282.279 79.8367 282.297 79.8787C282.647 80.78 283.041 81.7053 283.387 82.5044C283.917 83.73 284.338 84.6433 284.338 84.6433Z" fill="#FFB0B1"/>
<path opacity="0.1" d="M282.297 79.8786C282.005 81.4487 281.295 82.9116 280.243 84.1143C279.19 85.3171 277.833 86.2156 276.314 86.716C276.075 85.3447 275.744 83.9908 275.324 82.6635C275.324 82.6635 281.184 75.1081 281.274 76.6372C281.295 77.217 281.753 78.5027 282.297 79.8786Z" fill="black"/>
<path opacity="0.1" d="M275.73 88.7349L276.489 87.6685C276.489 87.6685 276.991 90.7267 278.839 89.3778C280.687 88.029 280.777 99.5288 280.777 99.5288L278.794 129.128L264.461 128.272L264.868 113.97L266.49 106.76L270.502 96.2783L272.889 92.8145L275.73 88.7349Z" fill="black"/>
<path d="M280.777 99.712L278.972 126.476L278.782 129.312L270.791 128.834L270.49 128.816L264.47 128.456L264.877 114.15L266.499 106.94L270.511 96.4585L272.898 92.9948L275.739 88.9001L276.497 87.8367C276.497 87.8367 277 90.8949 278.848 89.546L278.887 89.519C280.693 88.3774 280.777 99.712 280.777 99.712Z" fill="#1D2366"/>
<path d="M266.701 104.435C266.701 104.435 265.981 105.937 264.537 105.693C263.092 105.45 263.095 111.101 263.095 111.101C263.095 111.101 262.135 112.002 261.473 111.221C260.811 110.44 259.065 113.08 259.065 113.08L248.127 113.561C248.127 113.561 252.994 115.781 252.04 122.498C252.04 122.498 268.564 121.477 269.105 119.918C269.647 118.359 266.701 104.435 266.701 104.435Z" fill="white"/>
<path opacity="0.03" d="M266.701 104.435C266.701 104.435 265.981 105.937 264.537 105.693C263.092 105.45 263.095 111.101 263.095 111.101C263.095 111.101 262.135 112.002 261.473 111.221C260.811 110.44 259.065 113.08 259.065 113.08L248.127 113.561C248.127 113.561 252.994 115.781 252.04 122.498C252.04 122.498 268.564 121.477 269.105 119.918C269.647 118.359 266.701 104.435 266.701 104.435Z" fill="black"/>
<path d="M234.914 117.091L237.798 119.548L261.533 124.526L258.589 121.528L234.914 117.091Z" fill="white"/>
<path d="M275.775 89.6812C275.381 90.282 274.252 93.3582 273.31 96.0439C272.525 98.282 271.868 100.25 271.868 100.25C271.868 100.25 270.336 110.205 269.554 112.005C268.771 113.804 269.196 120.822 269.196 120.822L266.279 138.153C266.279 138.153 264.958 147.09 262.917 152.429C260.904 157.683 258.662 160.146 258.592 160.224C259.495 159.005 264.416 134.99 264.416 134.99L266.041 104.702C266.041 104.702 266.279 101.824 266.52 99.3635C266.761 96.9031 271.637 93.5445 271.637 93.5445L276.338 86.8723C276.81 87.5032 276.494 88.6027 275.775 89.6812Z" fill="white"/>
<path d="M263.516 128.606C263.516 128.606 256.594 128.305 253.241 124.286C249.888 120.266 260.991 122.681 260.991 122.681L263.877 123.342L263.516 128.606Z" fill="#FFB0B1"/>
<path opacity="0.1" d="M295.844 174.608C295.474 175.917 295.414 177.294 295.67 178.63C288.118 179.165 280.04 177.128 280.04 177.128C278.535 178.51 274.571 180.547 274.571 180.547L272.41 153.81C271.029 150.205 270.487 131.318 270.487 131.318C270.487 131.318 270.61 130.33 270.788 128.849C270.788 128.813 270.788 128.774 270.803 128.738C271.342 124.601 272.41 116.835 272.934 115.787C273.656 114.345 270.713 110.509 270.713 110.509L272.052 99.1081L272.215 97.7322C275.038 96.4735 277.202 92.4539 277.202 92.4539L278.863 89.5489C280.669 88.3923 280.762 99.7269 280.762 99.7269L278.957 126.491L284.94 124.841C284.94 124.841 296.865 171.189 295.844 174.608Z" fill="black"/>
<path d="M303.595 176.456C295.363 180.535 280.401 176.756 280.401 176.756C278.896 178.138 274.932 180.175 274.932 180.175L272.768 153.438C271.39 149.833 270.848 130.946 270.848 130.946C270.848 130.946 272.588 116.854 273.31 115.415C273.521 114.994 273.419 114.369 273.169 113.696C271.941 110.493 271.489 107.046 271.85 103.635L272.428 98.7358L272.588 97.3629C275.414 96.1011 277.578 92.0816 277.578 92.0816L279.083 89.45L281.852 84.6013L283.164 82.3062L283.387 82.5074L285.087 84.0455C285.087 84.0455 285.81 84.6464 286.893 85.5476C289.25 87.5303 293.322 91.0211 295.423 93.1571C297.271 95.0377 297.855 102.353 298.024 107.859C298.135 111.485 298.069 114.327 298.069 114.327C296.206 117.388 301.078 141.965 301.078 141.965C302.213 146.715 303.595 176.456 303.595 176.456Z" fill="white"/>
<path opacity="0.03" d="M287.793 92.0215C287.793 92.0215 282.144 102.755 282.8 106.835C283.456 110.915 285.322 115.532 284.422 116.61C284.113 117.019 283.713 117.351 283.254 117.579C282.795 117.808 282.29 117.928 281.777 117.929C280.874 117.989 278.466 119.669 278.466 119.849C278.466 120.029 276.242 120.029 274.252 120.87C272.263 121.711 269.325 122.189 269.325 122.189C269.325 122.189 263.607 122.009 263.074 122.55C262.541 123.09 261.993 126.326 263.134 128.906C264.275 131.487 265.542 133.412 266.499 133.764C267.456 134.115 273.53 132.085 278.457 131.604C283.384 131.123 288.732 127.227 288.732 127.227C288.732 127.227 294.622 125.124 295.655 121.588C296.687 118.052 294.394 98.6186 294.394 98.6186C294.394 98.6186 292.66 89.5611 287.793 92.0215Z" fill="black"/>
<path opacity="0.03" d="M287.071 91.1203C287.071 91.1203 281.422 101.857 282.084 105.934C282.746 110.01 284.606 114.631 283.703 115.712C283.395 116.121 282.996 116.453 282.537 116.682C282.079 116.911 281.573 117.03 281.06 117.031C280.157 117.091 277.75 118.77 277.75 118.951C277.75 119.131 275.525 119.131 273.536 119.969C271.546 120.807 268.609 121.288 268.609 121.288C268.609 121.288 262.89 121.108 262.361 121.648C261.831 122.189 261.277 125.427 262.421 128.005C263.564 130.583 264.829 132.511 265.786 132.863C266.743 133.214 272.817 131.183 277.744 130.706C282.671 130.228 288.019 126.326 288.019 126.326C288.019 126.326 293.906 124.223 294.926 120.69C295.947 117.157 293.665 97.7174 293.665 97.7174C293.665 97.7174 291.938 88.6629 287.071 91.1203Z" fill="black"/>
<path d="M287.616 91.4807C287.616 91.4807 281.966 102.217 282.628 106.294C283.291 110.371 285.151 114.991 284.251 116.07C283.943 116.48 283.543 116.812 283.084 117.042C282.625 117.271 282.119 117.391 281.605 117.391C280.702 117.451 278.294 119.131 278.294 119.308C278.294 119.485 276.073 119.488 274.081 120.329C272.088 121.171 269.154 121.648 269.154 121.648C269.154 121.648 263.435 121.468 262.902 122.009C262.37 122.549 261.822 125.788 262.962 128.365C264.103 130.943 265.37 132.872 266.327 133.223C267.285 133.575 273.358 131.544 278.285 131.063C283.212 130.582 288.561 126.686 288.561 126.686C288.561 126.686 294.451 124.583 295.483 121.047C296.516 117.512 294.237 98.0778 294.237 98.0778C294.237 98.0778 292.479 89.0353 287.616 91.4807Z" fill="white"/>
<path opacity="0.1" d="M287.492 120.278C287.492 120.278 282.978 119.377 284.549 120.879C286.12 122.381 286.111 123.697 288.034 123.637C289.957 123.577 287.492 120.278 287.492 120.278Z" fill="black"/>
<path opacity="0.1" d="M295.122 152.597C295.122 152.597 293.081 153.976 296.985 157.154C300.889 160.332 295.122 152.597 295.122 152.597Z" fill="black"/>
<path opacity="0.1" d="M291.227 163.931C291.227 164.112 290.505 170.54 293.208 172.148C295.911 173.755 291.227 163.931 291.227 163.931Z" fill="black"/>
<path d="M248.314 113.546C246.135 113.621 241.428 114.285 243.868 118.83C246.026 122.853 249.653 120.164 251.694 118.124C251.196 116.223 249.986 114.584 248.314 113.546Z" fill="#FFB0B1"/>
<path d="M251.721 118.088L251.811 117.995L251.721 118.088Z" fill="#FFB0B1"/>
<path opacity="0.1" d="M286.893 85.7306C284.582 87.3078 282.644 88.6386 282.264 88.915C281.229 89.6811 279.255 94.1783 277.981 96.4734C276.967 98.321 273.671 98.7956 272.428 98.9128L272.588 97.5399C275.414 96.2781 277.578 92.2586 277.578 92.2586L283.164 82.4832L285.087 84.2286C285.087 84.2286 285.81 84.8294 286.893 85.7306Z" fill="black"/>
<path d="M286.893 85.5504C284.582 87.1276 282.644 88.4584 282.264 88.7378C281.229 89.5009 279.255 93.9981 277.981 96.2932C276.967 98.1408 273.671 98.6154 272.428 98.7326L272.588 97.3597C275.414 96.0979 277.578 92.0784 277.578 92.0784L283.164 82.303L285.087 84.0424C285.087 84.0424 285.81 84.6372 286.893 85.5504Z" fill="#DCE7FF"/>
<path d="M282.445 77.896C282.446 79.6994 281.898 81.4605 280.874 82.946C279.664 84.7023 277.863 85.9675 275.799 86.5121C273.734 87.0567 271.542 86.8445 269.621 85.9141C267.7 84.9837 266.176 83.3967 265.327 81.4411C264.478 79.4854 264.359 77.2907 264.992 75.2552C265.626 73.2196 266.969 71.4781 268.779 70.3466C270.588 69.215 272.745 68.7685 274.856 69.088C276.967 69.4075 278.894 70.4718 280.286 72.0878C281.679 73.7039 282.444 75.7646 282.445 77.896Z" fill="#FFB0B1"/>
<path opacity="0.1" d="M298.023 107.862C296.801 107.112 295.806 106.044 295.143 104.774C294.64 103.783 294.306 102.638 293.449 101.935C292.675 101.304 291.643 101.151 290.68 100.869C287.513 99.9343 284.859 97.0503 284.759 93.7578C284.711 92.2076 285.196 90.6605 284.976 89.1254C284.851 88.2566 284.505 87.4343 283.971 86.7371C283.706 86.4037 283.415 86.0913 283.101 85.8028C282.68 85.4063 282.237 85.0217 281.852 84.6012C281.609 84.3407 281.397 84.0535 281.22 83.745C281.077 83.4925 280.961 83.2257 280.874 82.9489C280.272 81.1104 280.82 78.9294 280.157 77.0698L280.121 76.9677C279.871 76.3068 279.363 75.6458 278.656 75.5948C277.948 75.5437 277.343 76.1295 276.669 76.3909C275.257 76.9376 273.735 76.0063 272.558 75.057C271.381 74.1077 270.054 73.0232 268.558 73.2335C267.567 73.3747 266.785 74.0476 265.873 74.3961C265.667 74.4757 265.455 74.537 265.238 74.5794C266.01 72.6583 267.428 71.0654 269.248 70.0744C271.069 69.0835 273.178 68.7563 275.214 69.1491C277.25 69.5418 279.086 70.6301 280.405 72.2268C281.725 73.8236 282.446 75.8291 282.445 77.8989C282.446 78.524 282.38 79.1473 282.249 79.7585C282.264 79.8006 282.279 79.8396 282.297 79.8817C282.646 80.7829 283.041 81.7082 283.387 82.5073L285.087 84.0454C285.087 84.0454 285.81 84.6462 286.893 85.5475C289.25 87.5302 293.322 91.021 295.423 93.1569C297.271 95.0435 297.849 102.356 298.023 107.862Z" fill="black"/>
<path d="M265.768 68.9076C266.198 68.0334 266.412 67.0541 266.926 66.2249C267.682 65.0233 269 64.2542 270.355 63.7886C273.891 62.5719 281.364 60.8055 283.598 63.7886C284.037 64.3894 284.401 65.0563 285.009 65.4709C285.473 65.7863 286.033 65.9215 286.541 66.1588C287.965 66.8257 288.874 68.2797 289.358 69.7638C289.843 71.2478 289.987 72.84 290.343 74.3691C290.797 76.3308 291.595 78.1904 292.389 80.0379C293.325 82.2189 294.318 84.481 296.124 86.0222C298.589 88.125 299.134 91.1021 301.422 93.4093C304.13 96.1491 304.043 100.67 302.646 104.26C302.463 104.732 302.255 105.225 302.327 105.726C302.4 106.228 302.773 106.685 303.125 107.084L304.606 108.751C301.102 109.596 297.139 107.769 295.507 104.564C295.005 103.572 294.671 102.431 293.81 101.725C293.039 101.094 292.004 100.944 291.044 100.661C287.878 99.724 285.223 96.837 285.124 93.5445C285.075 91.9974 285.56 90.4502 285.34 88.9181C285.218 88.0435 284.871 87.2154 284.332 86.5148C283.504 85.4363 282.255 84.7123 281.581 83.5107C280.44 81.5009 281.307 78.8903 280.485 76.7334C280.233 76.0725 279.727 75.4116 279.02 75.3605C278.312 75.3094 277.707 75.8952 277.03 76.1566C275.622 76.7033 274.099 75.7751 272.922 74.8227C271.745 73.8704 270.418 72.7889 268.919 73.0022C267.929 73.1404 267.149 73.8134 266.237 74.1648C265.563 74.4232 264.197 74.6545 263.607 74.0867C262.361 72.9421 265.247 69.9771 265.768 68.9076Z" fill="#591D4B"/>
<path opacity="0.1" d="M296.344 103.572C295.838 102.581 295.507 101.439 294.647 100.736C293.876 100.106 292.841 99.9524 291.878 99.67C288.714 98.7357 286.06 95.8488 285.957 92.5562C285.909 91.0091 286.394 89.459 286.177 87.9269C286.051 87.0578 285.704 86.2356 285.169 85.5386C284.338 84.4601 283.089 83.7361 282.418 82.5344C281.277 80.5277 282.144 77.9171 281.319 75.7571C281.069 75.0992 280.561 74.4383 279.856 74.3842C279.152 74.3301 278.541 74.922 277.867 75.1833C276.458 75.7301 274.932 74.7988 273.759 73.8495C272.585 72.9002 271.251 71.8157 269.756 72.026C268.765 72.1672 267.983 72.8401 267.074 73.1886C266.4 73.4469 265.03 73.6813 264.44 73.1135C263.2 71.9118 266.087 68.9527 266.604 67.8893C267.035 67.0121 267.248 66.0357 267.766 65.2066C267.793 65.1615 267.823 65.1165 267.853 65.0714C267.466 65.3916 267.132 65.7708 266.863 66.195C266.349 67.0241 266.135 67.9974 265.704 68.8776C265.184 69.9411 262.297 72.9092 263.54 74.1018C264.142 74.6726 265.497 74.4383 266.171 74.1799C267.074 73.8285 267.862 73.1555 268.853 73.0173C270.358 72.804 271.682 73.8885 272.856 74.8378C274.03 75.7871 275.565 76.7184 276.967 76.1717C277.641 75.9103 278.231 75.3215 278.954 75.3756C279.676 75.4297 280.157 76.0876 280.419 76.7485C281.241 78.9054 280.374 81.516 281.515 83.5258C282.189 84.7064 283.438 85.4454 284.266 86.5299C284.804 87.2305 285.152 88.0586 285.274 88.9332C285.494 90.4653 285.009 92.0125 285.057 93.5596C285.157 96.8641 287.811 99.7391 290.978 100.676C291.932 100.959 292.973 101.109 293.744 101.74C294.607 102.446 294.947 103.587 295.441 104.579C297.072 107.784 301.036 109.611 304.54 108.767L303.841 107.979C300.805 108.025 297.732 106.3 296.344 103.572Z" fill="black"/>
<path opacity="0.1" d="M275.595 89.8615C275.2 90.4623 274.072 93.5386 273.13 96.2243C272.248 95.8818 271.447 93.6978 271.447 93.6978L276.148 87.0226C276.63 87.6835 276.314 88.78 275.595 89.8615Z" fill="black"/>
<path d="M275.775 89.6811C275.381 90.2819 274.252 93.3582 273.31 96.0439C272.428 95.7044 271.628 93.5174 271.628 93.5174L276.329 86.8452C276.811 87.5031 276.495 88.6026 275.775 89.6811Z" fill="#DCE7FF"/>
<path d="M248.44 120.371L245.834 112.167C245.803 112.071 245.791 111.97 245.8 111.869C245.808 111.769 245.836 111.671 245.883 111.581C245.929 111.492 245.993 111.412 246.07 111.347C246.148 111.282 246.237 111.233 246.333 111.203C246.527 111.142 246.737 111.161 246.918 111.254C247.098 111.348 247.234 111.508 247.297 111.701L249.903 119.897L249.644 121.612L248.44 120.371Z" fill="#BE8B87"/>
<path opacity="0.1" d="M246.081 111.446C246.275 111.385 246.486 111.403 246.667 111.496C246.848 111.59 246.985 111.751 247.047 111.945L249.653 120.14L249.458 121.426L249.647 121.624L249.906 119.909L247.285 111.714C247.222 111.52 247.086 111.36 246.906 111.266C246.726 111.173 246.515 111.154 246.322 111.215C246.158 111.268 246.017 111.373 245.921 111.515C245.972 111.488 246.026 111.465 246.081 111.446Z" fill="white"/>
<path d="M248.44 120.372L249.903 119.909L249.689 121.315L249.644 121.624L249.217 121.18L248.44 120.372Z" fill="#EFC8C4"/>
<path d="M249.217 121.18C249.242 121.147 249.274 121.121 249.31 121.101C249.331 121.088 249.356 121.081 249.381 121.081C249.406 121.081 249.43 121.088 249.452 121.101C249.472 121.126 249.489 121.153 249.503 121.183C249.523 121.216 249.55 121.244 249.582 121.265C249.614 121.287 249.651 121.3 249.689 121.306L249.644 121.606L249.217 121.18Z" fill="#727A9C"/>
<path d="M245.819 115.081C245.819 115.081 251.047 115.051 249.816 117.271C248.585 119.491 246.662 119.758 246.662 119.758L245.819 115.081Z" fill="#FFB0B1"/>
<path d="M213.304 15.449H213.078C204.097 15.449 196.154 20.1925 191.586 27.1921C187.017 20.1925 179.074 15.449 170.093 15.449H169.867C163.127 15.5131 156.684 18.2296 151.94 23.0082C147.195 27.7868 144.531 34.2413 144.528 40.9691C144.528 49.3236 148.194 61.1779 155.342 70.9323C168.961 89.5189 191.586 105.78 191.586 105.78C191.586 105.78 214.21 89.5219 227.826 70.9323C234.978 61.1779 238.641 49.3236 238.641 40.9691C238.637 34.2418 235.974 27.7878 231.23 23.0092C226.485 18.2307 220.044 15.5139 213.304 15.449ZM210.075 72.3623C209.052 72.3584 208.054 72.0459 207.212 71.4658C206.371 70.8857 205.724 70.0651 205.358 69.1118H199.989C199.635 69.1096 199.291 68.9973 199.005 68.7904C198.718 68.5836 198.504 68.2927 198.391 67.9582L196.741 62.9984L191.522 81.2004C191.421 81.5508 191.208 81.8588 190.916 82.0782C190.624 82.2976 190.269 82.4165 189.903 82.4171H189.798C189.416 82.3987 189.053 82.2503 188.768 81.9965C188.483 81.7428 188.294 81.3993 188.233 81.0232L182.854 48.7348L178.923 67.8411C178.833 68.204 178.624 68.5264 178.329 68.7567C178.034 68.987 177.67 69.112 177.295 69.1118H169.732C169.505 69.1214 169.278 69.0851 169.066 69.0051C168.854 68.9251 168.66 68.803 168.496 68.6463C168.332 68.4895 168.202 68.3013 168.113 68.093C168.024 67.8847 167.978 67.6605 167.978 67.434C167.978 67.2075 168.024 66.9833 168.113 66.775C168.202 66.5666 168.332 66.3784 168.496 66.2217C168.66 66.0649 168.854 65.9429 169.066 65.8629C169.278 65.7829 169.505 65.7466 169.732 65.7562H175.971L181.539 40.0678C181.63 39.688 181.851 39.3517 182.163 39.1164C182.476 38.8811 182.86 38.7613 183.251 38.7776C183.642 38.794 184.015 38.9453 184.307 39.2059C184.598 39.4664 184.79 39.8199 184.85 40.206L190.343 73.1433L195.02 56.8579C195.117 56.515 195.323 56.2126 195.607 55.996C195.89 55.7795 196.237 55.6603 196.594 55.6563H196.627C196.981 55.6564 197.325 55.768 197.612 55.9751C197.898 56.1823 198.112 56.4744 198.222 56.8099L201.205 65.7652H205.292C205.583 64.884 206.112 64.1 206.82 63.4999C207.529 62.8997 208.39 62.5067 209.309 62.3642C210.227 62.2217 211.167 62.3352 212.025 62.6923C212.883 63.0494 213.625 63.6361 214.17 64.3877C214.715 65.1393 215.041 66.0265 215.113 66.9515C215.185 67.8765 214.999 68.8032 214.576 69.6294C214.153 70.4556 213.51 71.1492 212.717 71.6336C211.925 72.1179 211.013 72.3743 210.084 72.3743L210.075 72.3623Z" fill="#EC5863"/>
</g>
<defs>
<linearGradient id="paint0_linear_6_207" x1="108.103" y1="232.783" x2="108.103" y2="47.9266" gradientUnits="userSpaceOnUse">
<stop stop-color="#808080" stop-opacity="0.25"/>
<stop offset="0.54" stop-color="#808080" stop-opacity="0.12"/>
<stop offset="1" stop-color="#808080" stop-opacity="0.1"/>
</linearGradient>
<linearGradient id="paint1_linear_6_207" x1="67183.9" y1="139477" x2="67183.9" y2="44588.2" gradientUnits="userSpaceOnUse">
<stop stop-color="#808080" stop-opacity="0.25"/>
<stop offset="0.54" stop-color="#808080" stop-opacity="0.12"/>
<stop offset="1" stop-color="#808080" stop-opacity="0.1"/>
</linearGradient>
</defs>
</svg>
